<?xml version="1.0" encoding="UTF-8" standalone="no"?>
<!-- Created with Inkscape (http://www.inkscape.org/) -->
<svg
   xmlns:dc="http://purl.org/dc/elements/1.1/"
   xmlns:cc="http://web.resource.org/cc/"
   xmlns:rdf="http://www.w3.org/1999/02/22-rdf-syntax-ns#"
   xmlns:svg="http://www.w3.org/2000/svg"
   xmlns="http://www.w3.org/2000/svg"
   xmlns:sodipodi="http://sodipodi.sourceforge.net/DTD/sodipodi-0.dtd"
   xmlns:inkscape="http://www.inkscape.org/namespaces/inkscape"
   version="1.0"
   width="648"
   height="432.00201"
   viewBox="0 0 648 432.002"
   id="svg16632"
   xml:space="preserve"
   sodipodi:version="0.32"
   inkscape:version="0.45"
   sodipodi:docname="Austria-Hungary_flag_1869-1918.svg"
   inkscape:output_extension="org.inkscape.output.svg.inkscape"
   sodipodi:docbase="C:\Documents and Settings\Owner\Desktop\New Folder"
   sodipodi:modified="true"><metadata
   id="metadata2562"><rdf:RDF><cc:Work
       rdf:about=""><dc:format>image/svg+xml</dc:format><dc:type
         rdf:resource="http://purl.org/dc/dcmitype/StillImage" /></cc:Work></rdf:RDF></metadata><sodipodi:namedview
   inkscape:window-height="598"
   inkscape:window-width="744"
   inkscape:pageshadow="2"
   inkscape:pageopacity="0.0"
   guidetolerance="10.0"
   gridtolerance="10.0"
   objecttolerance="10.0"
   borderopacity="1.0"
   bordercolor="#666666"
   pagecolor="#ffffff"
   id="base"
   inkscape:zoom="0.32245228"
   inkscape:cx="368.31829"
   inkscape:cy="173.46412"
   inkscape:window-x="66"
   inkscape:window-y="87"
   inkscape:current-layer="svg16632" /><defs
   id="defs16734" />
	
		<g
   id="Ebene_1">
			<rect
   width="648"
   height="144"
   x="0"
   y="0"
   style="fill:#d81e05;fill-opacity:1"
   id="rect1981" /> 
			<rect
   width="648"
   height="144"
   x="0"
   y="144"
   style="fill:white"
   id="rect2868" /> 
			<rect
   width="324"
   height="144.002"
   x="0"
   y="288"
   style="fill:#d81e05;fill-opacity:1"
   id="rect1998" /> 
			<rect
   width="324"
   height="144.002"
   x="324"
   y="288"
   style="fill:#008d46;fill-opacity:1"
   id="rect1998_2_" /> 
			<path
   d="M 420.579,282.084 C 414.427,282.084 414.087,275.603 414.082,274.304 C 414.082,274.303 414.082,170.516 414.082,150.074 L 547.022,150.074 L 547.022,274.302 C 547.016,275.604 546.677,282.085 540.525,282.085 L 484.876,282.085 L 480.553,286.937 L 476.23,282.085 L 420.579,282.085 L 420.579,282.084 z "
   style="fill:#d81e05;fill-opacity:1"
   id="path2089_1_" />
			<path
   d="M 481.114,286.229 L 484.395,273.86 C 485.405,266.666 496.384,255.558 496.384,255.558 C 496.384,255.558 502.318,254.295 503.831,255.936 C 505.02,257.225 506.103,258.082 506.103,258.082 L 508.878,255.053 C 509.636,254.169 512.412,252.024 512.412,252.024 L 522.762,252.024 C 522.762,252.024 527.18,255.81 527.938,257.705 C 527.938,257.705 532.23,254.045 532.735,254.55 C 532.735,254.55 538.92,254.045 538.92,254.928 C 538.92,254.928 546.745,260.482 548.134,267.298 L 549.27,273.357 L 545.864,284.463 L 481.114,286.229 z "
   style="fill:#008d46;fill-opacity:1"
   id="path7335" />
			<line
   id="path14433"
   fill="none"
   stroke="#FFFFFF"
   stroke-width="6"
   x1="517.83698"
   y1="246.252"
   x2="517.86298"
   y2="166.179"
   style="fill:none;stroke:white;stroke-width:6" />
			<line
   id="path15321"
   fill="none"
   stroke="#FFFFFF"
   stroke-width="6"
   x1="496.625"
   y1="201.26801"
   x2="538.89697"
   y2="201.26801"
   style="fill:none;stroke:white;stroke-width:6" />
			<line
   id="path15323"
   fill="none"
   stroke="#FFFFFF"
   stroke-width="6"
   x1="500.70901"
   y1="183.28"
   x2="534.922"
   y2="183.28"
   style="fill:none;stroke:white;stroke-width:6" />
			<line
   id="path16210"
   fill="none"
   stroke="#FFFFFF"
   stroke-width="3"
   x1="495.79999"
   y1="196.30701"
   x2="495.75601"
   y2="206.347"
   style="fill:none;stroke:white;stroke-width:3" />
			<line
   id="path16212"
   fill="none"
   stroke="#FFFFFF"
   stroke-width="3"
   x1="539.79999"
   y1="196.30701"
   x2="539.89001"
   y2="206.347"
   style="fill:none;stroke:white;stroke-width:3" />
			<line
   id="path16214"
   fill="none"
   stroke="#FFFFFF"
   stroke-width="3"
   x1="499.80899"
   y1="177.89799"
   x2="499.728"
   y2="188.28101"
   style="fill:none;stroke:white;stroke-width:3" />
			<line
   id="path16216"
   fill="none"
   stroke="#FFFFFF"
   stroke-width="3"
   x1="535.82898"
   y1="178.27699"
   x2="535.82898"
   y2="188.362"
   style="fill:none;stroke:white;stroke-width:3" />
			<line
   id="path16218"
   fill="none"
   stroke="#FFFFFF"
   stroke-width="3"
   x1="512.802"
   y1="165.64799"
   x2="522.888"
   y2="165.64799"
   style="fill:none;stroke:white;stroke-width:3" />
			<rect
   width="66.905998"
   height="18.028"
   x="414.548"
   y="183.071"
   style="fill:#d81e05;fill-opacity:1"
   id="rect18898" /> 
			<rect
   width="66.905998"
   height="18.027"
   x="414.72699"
   y="215.202"
   style="fill:#d81e05;fill-opacity:1"
   id="rect18900" /> 
			<rect
   width="67.031998"
   height="18.027"
   x="414.72699"
   y="249.117"
   style="fill:#d81e05;fill-opacity:1"
   id="rect18902" /> 
			<rect
   width="67.157997"
   height="15.708"
   x="413.34299"
   y="167.274"
   style="fill:white"
   id="rect18910" /> 
			<rect
   width="67.156998"
   height="15.708"
   x="413.16299"
   y="199.584"
   style="fill:white"
   id="rect19797" /> 
			<rect
   width="67.155998"
   height="15.708"
   x="413.52301"
   y="233.319"
   style="fill:white"
   id="rect19799" /> 
			<rect
   width="67.155998"
   height="20.264"
   x="413.52301"
   y="267.23401"
   style="fill:white"
   id="rect19801" /> 
			<rect
   width="10.099"
   height="6.0599999"
   x="512.63898"
   y="245.98801"
   style="fill:#fc0"
   id="rect8223" /> 
			<line
   id="path8226"
   fill="none"
   stroke="#FFCC00"
   x1="514.56299"
   y1="246.81599"
   x2="511.77499"
   y2="244.661"
   style="fill:none;stroke:#fc0" />
			<line
   id="path8228"
   fill="none"
   stroke="#FFCC00"
   x1="517.74298"
   y1="246.203"
   x2="517.68103"
   y2="243.61099"
   style="fill:none;stroke:#fc0" />
			<line
   id="path8230"
   fill="none"
   stroke="#FFCC00"
   x1="521.85901"
   y1="246.772"
   x2="523.98401"
   y2="244.64999"
   style="fill:none;stroke:#fc0" />
			<path
   d="M 425.858,143.478 L 411.292,117.079 L 411.578,100.656 L 427.433,122.18 L 429.785,89.946 L 445.41,113.739 L 450.491,87.447 L 458.702,105.299 C 460.848,88.259 476.195,81.38 476.195,81.38 L 476.195,63.528 L 486.505,63.172 L 486.422,81.462 C 486.422,81.462 498.406,85.44 503.328,105.129 L 512.668,86.195 L 516.834,116.235 L 531.855,89.477 L 536.019,122.419 L 549.146,101.088 L 551.366,119.042 L 538.541,144.232 C 538.541,144.232 511.787,132.515 497.398,132.136 L 462.055,132.262 C 462.055,132.265 434.567,136.662 425.858,143.478 z "
   style="fill:#fc0"
   id="path19890" />
			<path
   d="M 425.578,143.12 L 401.974,102.099 C 400.01,100.314 401.847,88.468 401.847,88.468 C 401.469,79.254 425.451,71.05 433.908,68.399 C 444.109,65.203 476.57,61.711 481.871,61.711 C 487.425,61.711 521.63,64.993 527.814,68.149 C 527.814,68.149 554.32,75.343 560.882,87.209 C 560.882,87.209 562.942,99.107 561.513,100.715 L 538.794,144.512"
   style="fill:none;stroke:#fc0;stroke-width:4"
   id="path20777" />
			<line
   id="path22553"
   fill="none"
   stroke="#FFCC00"
   stroke-width="4"
   x1="482.44199"
   y1="61.028"
   x2="466.37799"
   y2="35.146"
   style="fill:none;stroke:#fc0;stroke-width:4" />
			<line
   id="path22555"
   fill="none"
   stroke="#FFCC00"
   stroke-width="4"
   x1="464.414"
   y1="46.928001"
   x2="477.08801"
   y2="38.002998"
   style="fill:none;stroke:#fc0;stroke-width:4" />
			<path
   d="M 413.45,69.062 C 413.455,71.229 411.743,72.992 409.625,72.998 C 407.507,73.004 405.785,71.251 405.779,69.084 C 405.779,69.077 405.779,69.069 405.779,69.063 C 405.774,66.895 407.486,65.134 409.604,65.128 C 411.721,65.122 413.444,66.875 413.45,69.042 C 413.45,69.048 413.45,69.055 413.45,69.062 z "
   style="fill:white"
   id="path24345" />
			<path
   d="M 398.903,105.832 C 398.908,108 397.195,109.762 395.077,109.767 C 392.959,109.773 391.238,108.02 391.232,105.853 C 391.232,105.846 391.232,105.839 391.232,105.832 C 391.225,103.665 392.939,101.902 395.056,101.896 C 397.174,101.89 398.897,103.643 398.903,105.81 C 398.903,105.817 398.903,105.825 398.903,105.832 z "
   style="fill:white"
   id="path23454" />
			<path
   d="M 396.671,92.088 C 396.677,94.255 394.964,96.017 392.846,96.023 C 390.728,96.029 389.006,94.276 389.001,92.108 C 389.001,92.102 389.001,92.095 389.001,92.088 C 388.995,89.92 390.708,88.158 392.826,88.152 C 394.944,88.146 396.666,89.898 396.671,92.066 C 396.671,92.073 396.671,92.081 396.671,92.088 z "
   style="fill:white"
   id="path24341" />
			<path
   d="M 400.955,78.343 C 400.961,80.511 399.248,82.273 397.13,82.279 C 395.012,82.285 393.29,80.532 393.285,78.364 C 393.285,78.357 393.285,78.35 393.285,78.343 C 393.279,76.176 394.992,74.414 397.11,74.408 C 399.227,74.402 400.95,76.154 400.955,78.322 C 400.955,78.33 400.955,78.337 400.955,78.343 z "
   style="fill:white"
   id="path24343" />
			<path
   d="M 427.729,63.35 C 427.735,65.517 426.022,67.279 423.904,67.286 C 421.786,67.291 420.065,65.539 420.058,63.371 C 420.058,63.363 420.058,63.357 420.058,63.35 C 420.052,61.182 421.765,59.42 423.883,59.415 C 426.001,59.409 427.723,61.161 427.729,63.329 C 427.729,63.336 427.729,63.343 427.729,63.35 z "
   style="fill:white"
   id="path24347" />
			<path
   d="M 442.367,59.064 C 442.372,61.231 440.659,62.994 438.541,63 C 436.424,63.006 434.702,61.253 434.696,59.086 C 434.696,59.079 434.696,59.071 434.696,59.065 C 434.69,56.898 436.403,55.136 438.521,55.13 C 440.638,55.124 442.361,56.877 442.367,59.044 C 442.367,59.052 442.367,59.059 442.367,59.064 z "
   style="fill:white"
   id="path24349" />
			<path
   d="M 456.825,56.209 C 456.831,58.377 455.118,60.139 453,60.144 C 450.882,60.15 449.16,58.398 449.155,56.23 C 449.155,56.223 449.155,56.216 449.155,56.209 C 449.149,54.042 450.862,52.279 452.979,52.273 C 455.097,52.268 456.82,54.02 456.825,56.188 C 456.825,56.195 456.825,56.202 456.825,56.209 z "
   style="fill:white"
   id="path24351" />
			<path
   d="M 471.284,54.246 C 471.289,56.413 469.576,58.175 467.458,58.181 C 465.34,58.187 463.619,56.434 463.613,54.267 C 463.613,54.26 463.613,54.253 463.613,54.246 C 463.607,52.078 465.32,50.316 467.438,50.31 C 469.555,50.304 471.278,52.057 471.284,54.224 C 471.284,54.231 471.284,54.238 471.284,54.246 z "
   style="fill:white"
   id="path24353" />
			<path
   d="M 499.665,54.246 C 499.671,56.413 497.958,58.175 495.84,58.181 C 493.722,58.187 492,56.434 491.994,54.267 C 491.994,54.26 491.994,54.253 491.994,54.246 C 491.989,52.078 493.702,50.316 495.819,50.31 C 497.938,50.304 499.659,52.057 499.665,54.224 C 499.665,54.231 499.665,54.238 499.665,54.246 z "
   style="fill:white"
   id="path24355" />
			<path
   d="M 513.588,56.03 C 513.594,58.197 511.881,59.96 509.763,59.966 C 507.646,59.971 505.923,58.219 505.918,56.051 C 505.918,56.044 505.918,56.038 505.918,56.03 C 505.912,53.862 507.625,52.1 509.743,52.095 C 511.861,52.089 513.583,53.841 513.588,56.009 C 513.588,56.018 513.588,56.023 513.588,56.03 z "
   style="fill:white"
   id="path24357" />
			<path
   d="M 528.046,58.887 C 528.052,61.055 526.339,62.817 524.221,62.822 C 522.103,62.829 520.382,61.076 520.376,58.909 C 520.376,58.901 520.376,58.894 520.376,58.888 C 520.37,56.721 522.083,54.959 524.201,54.953 C 526.319,54.946 528.041,56.699 528.046,58.867 C 528.046,58.873 528.046,58.88 528.046,58.887 z "
   style="fill:white"
   id="path24359" />
			<path
   d="M 542.862,63.526 C 542.867,65.694 541.154,67.457 539.036,67.463 C 536.919,67.468 535.197,65.716 535.191,63.548 C 535.191,63.541 535.191,63.534 535.191,63.527 C 535.184,61.36 536.898,59.598 539.015,59.592 C 541.133,59.587 542.856,61.339 542.862,63.507 C 542.862,63.515 542.862,63.521 542.862,63.526 z "
   style="fill:white"
   id="path24361" />
			<path
   d="M 557.142,69.418 C 557.149,71.586 555.435,73.348 553.318,73.354 C 551.2,73.359 549.478,71.607 549.472,69.439 C 549.472,69.432 549.472,69.425 549.472,69.418 C 549.466,67.251 551.179,65.488 553.297,65.482 C 555.415,65.477 557.136,67.229 557.142,69.397 C 557.142,69.404 557.142,69.412 557.142,69.418 z "
   style="fill:white"
   id="path24363" />
			<path
   d="M 569.458,77.985 C 569.464,80.152 567.751,81.915 565.633,81.921 C 563.515,81.927 561.793,80.174 561.788,78.007 C 561.788,78 561.788,77.993 561.788,77.986 C 561.782,75.819 563.495,74.057 565.613,74.051 C 567.731,74.045 569.453,75.798 569.458,77.965 C 569.458,77.973 569.458,77.979 569.458,77.985 z "
   style="fill:white"
   id="path24365" />
			<path
   d="M 574.1,91.909 C 574.106,94.076 572.392,95.838 570.276,95.844 C 568.157,95.85 566.435,94.097 566.429,91.93 C 566.429,91.923 566.429,91.916 566.429,91.909 C 566.423,89.742 568.136,87.979 570.254,87.973 C 572.372,87.967 574.094,89.72 574.1,91.887 C 574.1,91.896 574.1,91.901 574.1,91.909 z "
   style="fill:white"
   id="path24367" />
			<path
   d="M 571.422,106.011 C 571.427,108.178 569.715,109.94 567.597,109.946 C 565.48,109.953 563.757,108.199 563.751,106.032 C 563.751,106.025 563.751,106.018 563.751,106.011 C 563.746,103.843 565.458,102.082 567.576,102.076 C 569.694,102.069 571.416,103.822 571.422,105.989 C 571.422,105.997 571.422,106.004 571.422,106.011 z "
   style="fill:white"
   id="path24369" />
			<path
   d="M 408.083,144.08 L 408.083,274.301 C 408.079,274.941 408.159,280.822 412.09,284.773 C 414.243,286.937 417.18,288.082 420.58,288.082 L 473.538,288.082 L 480.553,296.026 L 487.569,288.081 L 540.527,288.081 C 543.927,288.081 546.864,286.936 549.016,284.772 C 552.949,280.823 553.029,274.94 553.025,274.284 C 553.025,274.304 553.025,144.081 553.025,144.081 L 408.083,144.081 L 408.083,144.08 z M 547.022,274.301 C 547.016,275.603 546.677,282.084 540.525,282.084 L 484.876,282.084 L 480.553,286.936 L 476.23,282.084 L 420.58,282.084 C 414.428,282.084 414.088,275.603 414.083,274.304 C 414.083,274.303 414.083,170.516 414.083,150.074 L 547.023,150.074 L 547.022,274.301 L 547.022,274.301 z "
   style="fill:#fc0"
   id="path16682" />
			<path
   d="M 167.449,296.025 L 174.464,288.08 L 227.422,288.08 C 230.823,288.08 233.759,286.935 235.912,284.771 C 239.844,280.822 239.924,274.939 239.92,274.283 C 239.92,274.303 239.92,144.08 239.92,144.08 L 94.98,144.08 L 94.98,274.301 C 94.976,274.941 95.056,280.822 98.987,284.773 C 101.14,286.937 104.076,288.082 107.477,288.082 L 160.435,288.082 L 167.449,296.025 z "
   style="fill:#fc0"
   id="small_flag" />
			<path
   d="M 233.919,194.078 L 233.919,150.073 L 100.979,150.073 C 100.979,156.844 100.979,174.31 100.979,194.078 L 233.919,194.078 z "
   style="fill:#d81e05;fill-opacity:1"
   id="path2085" />
			<path
   d="M 100.979,194.078 C 100.979,208.616 100.979,224.39 100.979,238.081 L 233.919,238.081 L 233.919,194.078 L 100.979,194.078 L 100.979,194.078 z "
   style="fill:white"
   id="path2087" />
			<path
   d="M 107.476,282.084 C 101.323,282.084 100.984,275.603 100.979,274.304 C 100.979,274.303 100.979,258.523 100.979,238.08 L 233.919,238.08 L 233.919,274.301 C 233.914,275.603 233.575,282.084 227.422,282.084 L 171.773,282.084 L 167.449,286.936 L 163.125,282.084 L 107.476,282.084 L 107.476,282.084 z "
   style="fill:#d81e05;fill-opacity:1"
   id="path2089" />
			<path
   d="M 168.349,59.072 L 168.349,47.844 L 174.599,47.844 L 174.599,46.043 L 168.349,46.043 L 168.349,38.063 L 166.549,38.063 L 166.549,46.043 L 160.185,46.043 L 160.185,47.844 L 166.549,47.844 L 166.549,59.073 C 165.413,61.191 163.529,65.438 161.404,66.835 C 158.532,68.725 153.721,68.726 145.866,67.808 C 137.014,66.774 130.283,63.058 123.514,64.183 C 117.775,65.137 113.489,72.144 113.489,72.144 C 113.685,72.072 87.574,69.016 85.182,91.9 C 84.146,101.813 90.785,109.887 90.785,109.887 C 90.785,109.887 84.889,110 83.855,113.983 C 82.823,117.962 87.394,120.944 90.932,120.944 C 94.47,120.944 98.744,120.504 104.053,126.84 C 109.361,133.181 112.604,146.152 112.604,146.152 C 112.604,146.152 121.45,139.631 138.059,134.771 C 154.668,129.911 180.229,129.912 196.839,134.772 C 213.447,139.632 222.294,146.153 222.294,146.153 C 222.294,146.153 225.537,133.179 230.845,126.841 C 236.153,120.501 240.428,120.945 243.966,120.945 C 247.504,120.945 252.074,117.966 251.043,113.984 C 250.011,110.005 244.112,109.888 244.112,109.888 C 244.112,109.888 250.752,101.814 249.716,91.901 C 247.323,69.017 221.213,72.073 221.408,72.145 C 221.408,72.145 217.121,65.138 211.384,64.184 C 204.614,63.059 197.884,66.774 189.031,67.809 C 181.177,68.727 176.364,68.726 173.493,66.836 C 171.369,65.438 169.485,61.19 168.349,59.072 z "
   style="fill:#fc0"
   id="path2476" />
			<path
   d="M 119.464,95.517 C 119.234,97.898 112.634,101.441 109.312,103.103 C 105.99,104.763 101.56,105.703 97.271,104.611 C 92.982,103.52 89.514,92.488 92.996,85.414 C 96.574,78.143 108.623,77.272 112.604,79.189 C 114.802,80.245 119.694,93.133 119.464,95.517 z "
   style="fill:#d81e05;fill-opacity:1"
   id="path2481" />
			<path
   d="M 163.439,85.381 C 161.501,89.398 146.273,95.35 139.905,95.765 C 133.537,96.181 129.287,92.369 129.287,92.369 C 124.483,85.477 118.843,74.581 123.955,71.259 C 128.948,68.017 140.783,73.392 152.531,73.392 C 159.112,73.392 164.962,71.265 164.962,71.265 C 164.962,71.265 165.377,81.367 163.439,85.381 z "
   style="fill:#d81e05;fill-opacity:1"
   id="path2483" />
			<path
   d="M 169.935,71.263 C 169.935,71.263 175.784,73.39 182.365,73.39 C 194.113,73.39 205.948,68.015 210.941,71.257 C 216.054,74.579 210.414,85.478 205.609,92.367 C 205.609,92.367 201.359,96.179 194.991,95.763 C 188.623,95.348 173.395,89.396 171.457,85.379 C 169.519,81.366 169.935,71.263 169.935,71.263 z "
   style="fill:#d81e05;fill-opacity:1"
   id="path2485" />
			<path
   d="M 222.293,79.188 C 226.273,77.271 238.322,78.14 241.9,85.413 C 245.381,92.488 241.913,103.519 237.626,104.61 C 233.338,105.702 228.906,104.762 225.585,103.102 C 222.263,101.44 215.663,97.897 215.433,95.516 C 215.202,93.136 220.095,80.245 222.293,79.188 z "
   style="fill:#d81e05;fill-opacity:1"
   id="path2487" />
			<path
   d="M 142.357,122.141 C 144.136,124.337 142.695,127.54 139.138,129.295 C 135.58,131.05 131.256,130.691 129.477,128.491 C 129.472,128.483 129.466,128.476 129.461,128.47 C 127.682,126.273 129.122,123.069 132.68,121.314 C 136.237,119.56 140.562,119.918 142.341,122.119 C 142.346,122.125 142.351,122.133 142.357,122.141 z "
   style="fill:#d81e05;fill-opacity:1"
   id="path30704" />
			<path
   d="M 192.918,122.495 C 191.139,124.691 192.579,127.895 196.137,129.649 C 199.694,131.404 204.019,131.045 205.797,128.846 C 205.803,128.838 205.808,128.83 205.814,128.825 C 207.593,126.629 206.152,123.426 202.595,121.671 C 199.037,119.915 194.713,120.275 192.934,122.475 C 192.929,122.48 192.923,122.487 192.918,122.495 z "
   style="fill:#d81e05;fill-opacity:1"
   id="path30708" />
			<path
   d="M 100.935,117.98 C 100.208,120.462 97.416,120.926 94.697,119.013 C 91.977,117.099 90.361,113.534 91.087,111.051 C 91.089,111.041 91.092,111.033 91.094,111.028 C 91.82,108.546 94.613,108.083 97.331,109.996 C 100.051,111.909 101.667,115.475 100.942,117.958 C 100.94,117.967 100.938,117.975 100.935,117.98 z "
   style="fill:#d81e05;fill-opacity:1"
   id="path30710" />
			<path
   d="M 129.845,106.81 C 128.409,109.025 125.604,108.756 123.576,106.208 C 121.549,103.662 121.068,99.805 122.503,97.588 C 122.507,97.58 122.512,97.572 122.516,97.567 C 123.951,95.352 126.757,95.621 128.785,98.168 C 130.813,100.715 131.293,104.572 129.859,106.789 C 129.853,106.796 129.849,106.804 129.845,106.81 z "
   style="fill:#d81e05;fill-opacity:1"
   id="path30712" />
			<path
   d="M 209.956,107.166 C 207.777,109.382 205.061,109.112 203.89,106.565 C 202.718,104.019 203.534,100.161 205.712,97.944 C 205.719,97.937 205.726,97.93 205.733,97.923 C 207.912,95.707 210.629,95.977 211.8,98.524 C 212.972,101.07 212.155,104.929 209.978,107.145 C 209.97,107.151 209.963,107.159 209.956,107.166 z "
   style="fill:#d81e05;fill-opacity:1"
   id="path30718" />
			<path
   d="M 240.234,119.125 C 237.949,121.342 235.246,121.071 234.195,118.525 C 233.145,115.979 234.145,112.12 236.43,109.904 C 236.437,109.897 236.444,109.89 236.451,109.883 C 238.735,107.665 241.439,107.936 242.49,110.482 C 243.54,113.028 242.54,116.888 240.256,119.103 C 240.248,119.11 240.241,119.118 240.234,119.125 z "
   style="fill:#d81e05;fill-opacity:1"
   id="path30720" />
			<path
   d="M 113.008,118.312 C 112.378,120.522 109.951,120.934 107.589,119.231 C 105.226,117.529 103.821,114.356 104.451,112.146 C 104.453,112.139 104.455,112.131 104.457,112.125 C 105.088,109.915 107.514,109.504 109.877,111.206 C 112.239,112.909 113.644,116.081 113.014,118.292 C 113.012,118.3 113.01,118.308 113.008,118.312 z "
   style="fill:#d81e05;fill-opacity:1"
   id="path30722" />
			<path
   d="M 122.869,112.688 C 122.239,114.899 119.812,115.31 117.45,113.608 C 115.088,111.905 113.683,108.732 114.313,106.522 C 114.315,106.515 114.317,106.508 114.319,106.501 C 114.949,104.29 117.375,103.88 119.737,105.581 C 122.1,107.284 123.505,110.456 122.874,112.667 C 122.873,112.678 122.871,112.684 122.869,112.688 z "
   style="fill:#d81e05;fill-opacity:1"
   id="path30724" />
			<path
   d="M 144.661,109.053 C 142.539,113.254 138.575,114.035 135.806,110.799 C 133.037,107.564 132.512,101.529 134.634,97.328 C 134.64,97.314 134.647,97.304 134.654,97.289 C 136.776,93.088 140.741,92.307 143.51,95.541 C 146.28,98.777 146.804,104.811 144.683,109.013 C 144.675,109.023 144.668,109.037 144.661,109.053 z "
   style="fill:#d81e05;fill-opacity:1"
   id="path30726" />
			<path
   d="M 161.716,109.229 C 160.492,113.431 156.695,114.212 153.234,110.976 C 149.773,107.74 147.959,101.706 149.182,97.505 C 149.186,97.491 149.19,97.48 149.194,97.466 C 150.417,93.265 154.215,92.483 157.676,95.72 C 161.137,98.954 162.95,104.988 161.728,109.19 C 161.723,109.202 161.72,109.217 161.716,109.229 z "
   style="fill:#d81e05;fill-opacity:1"
   id="path30728" />
			<path
   d="M 182.45,110.988 C 179.072,114.266 175.069,113.713 173.51,109.748 C 171.949,105.784 173.424,99.913 176.801,96.636 C 176.812,96.624 176.822,96.615 176.832,96.606 C 180.211,93.328 184.214,93.881 185.773,97.846 C 187.334,101.81 185.86,107.682 182.482,110.958 C 182.471,110.971 182.461,110.979 182.45,110.988 z "
   style="fill:#d81e05;fill-opacity:1"
   id="path30730" />
			<path
   d="M 199.639,108.872 C 197.517,113.073 193.553,113.856 190.783,110.62 C 188.013,107.385 187.489,101.351 189.61,97.149 C 189.617,97.135 189.624,97.124 189.631,97.11 C 191.753,92.908 195.717,92.126 198.486,95.362 C 201.257,98.599 201.78,104.632 199.659,108.833 C 199.653,108.849 199.646,108.858 199.639,108.872 z "
   style="fill:#d81e05;fill-opacity:1"
   id="path30732" />
			<path
   d="M 214.044,115.669 C 211.753,115.858 210.512,113.733 211.272,110.924 C 212.032,108.112 214.504,105.68 216.795,105.486 C 216.802,105.486 216.81,105.485 216.816,105.485 C 219.107,105.297 220.348,107.422 219.588,110.231 C 218.828,113.042 216.356,115.475 214.065,115.667 C 214.059,115.668 214.052,115.669 214.044,115.669 z "
   style="fill:#d81e05;fill-opacity:1"
   id="path30734" />
			<path
   d="M 224.865,121.08 C 222.625,121.595 221.095,119.665 221.449,116.773 C 221.803,113.881 223.906,111.125 226.146,110.611 C 226.153,110.609 226.16,110.607 226.167,110.606 C 228.407,110.093 229.938,112.021 229.583,114.913 C 229.229,117.806 227.127,120.561 224.886,121.075 C 224.879,121.077 224.872,121.078 224.865,121.08 z "
   style="fill:#d81e05;fill-opacity:1"
   id="path30736" />
			<ellipse
   cx="167.44901"
   cy="97.070999"
   rx="4.7969999"
   ry="6.5619998"
   style="fill:#d81e05;fill-opacity:1"
   id="ellipse2142" /> 
			<ellipse
   cx="167.44901"
   cy="121.682"
   rx="7.3330002"
   ry="4.934"
   style="fill:#d81e05;fill-opacity:1"
   id="ellipse2144" /> 
			<path
   d="M 257.743,106.152 C 257.748,108.32 256.036,110.082 253.919,110.089 C 251.801,110.096 250.078,108.342 250.073,106.175 C 250.073,106.167 250.073,106.16 250.073,106.154 C 250.067,103.987 251.78,102.225 253.898,102.219 C 256.015,102.212 257.738,103.965 257.743,106.132 C 257.743,106.142 257.743,106.146 257.743,106.152 z "
   style="fill:white"
   id="path31635" />
			<path
   d="M 259.51,92.271 C 259.516,94.438 257.803,96.201 255.685,96.207 C 253.568,96.213 251.846,94.46 251.84,92.293 C 251.84,92.286 251.84,92.278 251.84,92.272 C 251.835,90.105 253.548,88.342 255.664,88.335 C 257.782,88.329 259.505,90.082 259.51,92.249 C 259.51,92.257 259.51,92.265 259.51,92.271 z "
   style="fill:white"
   id="path31637" />
			<path
   d="M 254.966,78.64 C 254.971,80.808 253.259,82.57 251.141,82.576 C 249.023,82.582 247.301,80.83 247.296,78.662 C 247.296,78.654 247.296,78.647 247.296,78.641 C 247.29,76.474 249.003,74.71 251.12,74.704 C 253.238,74.698 254.961,76.451 254.966,78.619 C 254.966,78.625 254.966,78.632 254.966,78.64 z "
   style="fill:white"
   id="path31639" />
			<path
   d="M 243.102,69.299 C 243.107,71.466 241.394,73.229 239.276,73.235 C 237.158,73.242 235.437,71.488 235.431,69.321 C 235.431,69.314 235.431,69.307 235.431,69.3 C 235.426,67.133 237.139,65.37 239.257,65.363 C 241.374,65.357 243.096,67.11 243.102,69.277 C 243.102,69.284 243.102,69.291 243.102,69.299 z "
   style="fill:white"
   id="path31641" />
			<path
   d="M 229.218,66.018 C 229.223,68.185 227.511,69.947 225.393,69.954 C 223.275,69.959 221.553,68.207 221.548,66.039 C 221.548,66.031 221.548,66.024 221.548,66.018 C 221.543,63.85 223.255,62.087 225.372,62.08 C 227.49,62.075 229.213,63.827 229.218,65.995 C 229.218,66.004 229.218,66.012 229.218,66.018 z "
   style="fill:white"
   id="path31643" />
			<path
   d="M 217.858,59.958 C 217.863,62.125 216.15,63.889 214.032,63.895 C 211.914,63.901 210.193,62.148 210.187,59.981 C 210.187,59.974 210.187,59.966 210.187,59.96 C 210.181,57.792 211.894,56.029 214.012,56.024 C 216.13,56.018 217.852,57.771 217.857,59.938 C 217.858,59.943 217.858,59.951 217.858,59.958 z "
   style="fill:white"
   id="path31645" />
			<path
   d="M 203.469,59.705 C 203.474,61.873 201.762,63.637 199.644,63.642 C 197.526,63.648 195.804,61.896 195.799,59.728 C 195.799,59.721 195.799,59.713 195.799,59.707 C 195.794,57.54 197.506,55.777 199.623,55.771 C 201.741,55.765 203.464,57.518 203.469,59.686 C 203.469,59.69 203.469,59.697 203.469,59.705 z "
   style="fill:white"
   id="path31647" />
			<path
   d="M 192.614,62.733 C 192.62,64.901 190.907,66.663 188.789,66.669 C 186.672,66.677 184.95,64.923 184.944,62.756 C 184.944,62.748 184.944,62.741 184.944,62.735 C 184.939,60.568 186.652,58.806 188.769,58.799 C 190.887,58.792 192.609,60.546 192.614,62.713 C 192.614,62.723 192.614,62.729 192.614,62.733 z "
   style="fill:white"
   id="path31649" />
			<path
   d="M 180.75,62.733 C 180.756,64.901 179.044,66.663 176.926,66.669 C 174.808,66.677 173.086,64.923 173.08,62.756 C 173.08,62.748 173.08,62.741 173.08,62.735 C 173.075,60.568 174.787,58.806 176.905,58.799 C 179.023,58.792 180.745,60.546 180.75,62.713 C 180.75,62.723 180.75,62.729 180.75,62.733 z "
   style="fill:white"
   id="path31651" />
			<path
   d="M 162.322,62.733 C 162.327,64.901 160.615,66.663 158.497,66.669 C 156.38,66.677 154.657,64.923 154.652,62.756 C 154.652,62.748 154.652,62.741 154.652,62.735 C 154.647,60.568 156.359,58.806 158.477,58.799 C 160.595,58.792 162.317,60.546 162.322,62.713 C 162.322,62.723 162.322,62.729 162.322,62.733 z "
   style="fill:white"
   id="path31653" />
			<path
   d="M 150.71,62.733 C 150.715,64.901 149.002,66.664 146.884,66.669 C 144.766,66.677 143.045,64.924 143.038,62.756 C 143.038,62.748 143.038,62.741 143.038,62.735 C 143.033,60.568 144.746,58.806 146.864,58.799 C 148.982,58.792 150.703,60.546 150.71,62.714 C 150.71,62.723 150.71,62.729 150.71,62.733 z "
   style="fill:white"
   id="path31655" />
			<path
   d="M 139.098,60.21 C 139.104,62.379 137.391,64.141 135.273,64.147 C 133.155,64.153 131.433,62.4 131.428,60.233 C 131.428,60.226 131.428,60.219 131.428,60.212 C 131.423,58.045 133.136,56.283 135.254,56.276 C 137.371,56.27 139.093,58.023 139.099,60.19 C 139.098,60.195 139.098,60.203 139.098,60.21 z "
   style="fill:white"
   id="path31657" />
			<path
   d="M 125.719,60.21 C 125.724,62.379 124.012,64.141 121.894,64.147 C 119.776,64.153 118.054,62.4 118.049,60.233 C 118.049,60.226 118.049,60.219 118.049,60.212 C 118.042,58.045 119.756,56.283 121.873,56.276 C 123.991,56.27 125.714,58.023 125.719,60.19 C 125.719,60.195 125.719,60.203 125.719,60.21 z "
   style="fill:white"
   id="path31659" />
			<path
   d="M 113.855,66.018 C 113.86,68.185 112.147,69.947 110.029,69.954 C 107.911,69.959 106.19,68.207 106.184,66.039 C 106.184,66.031 106.184,66.024 106.184,66.018 C 106.179,63.85 107.892,62.087 110.01,62.08 C 112.128,62.075 113.849,63.827 113.855,65.995 C 113.855,66.004 113.855,66.012 113.855,66.018 z "
   style="fill:white"
   id="path31661" />
			<path
   d="M 99.718,69.047 C 99.723,71.214 98.011,72.977 95.893,72.983 C 93.775,72.988 92.053,71.236 92.048,69.068 C 92.048,69.062 92.048,69.055 92.048,69.047 C 92.042,66.879 93.755,65.116 95.872,65.11 C 97.99,65.104 99.713,66.856 99.718,69.024 C 99.718,69.031 99.718,69.039 99.718,69.047 z "
   style="fill:white"
   id="path31663" />
			<path
   d="M 87.349,78.64 C 87.354,80.808 85.641,82.57 83.523,82.576 C 81.405,82.582 79.684,80.83 79.678,78.662 C 79.678,78.654 79.678,78.647 79.678,78.641 C 79.673,76.474 81.386,74.71 83.504,74.704 C 85.621,74.698 87.343,76.451 87.349,78.619 C 87.349,78.625 87.349,78.632 87.349,78.64 z "
   style="fill:white"
   id="path31665" />
			<path
   d="M 83.057,92.018 C 83.062,94.186 81.349,95.948 79.231,95.954 C 77.114,95.96 75.392,94.208 75.387,92.04 C 75.387,92.032 75.387,92.025 75.387,92.019 C 75.381,89.852 77.094,88.089 79.212,88.082 C 81.329,88.077 83.052,89.829 83.057,91.997 C 83.057,92.005 83.057,92.012 83.057,92.018 z "
   style="fill:white"
   id="path31667" />
			<path
   d="M 84.319,105.396 C 84.325,107.563 82.612,109.326 80.494,109.332 C 78.376,109.339 76.655,107.585 76.649,105.418 C 76.649,105.411 76.649,105.403 76.649,105.397 C 76.644,103.229 78.357,101.466 80.474,101.461 C 82.592,101.454 84.314,103.207 84.319,105.374 C 84.319,105.385 84.319,105.392 84.319,105.396 z "
   style="fill:white"
   id="path31669" />
			<path
   d="M 113.602,134.175 C 113.608,136.344 111.895,138.105 109.777,138.111 C 107.659,138.118 105.938,136.364 105.932,134.197 C 105.932,134.19 105.932,134.183 105.932,134.176 C 105.927,132.009 107.64,130.246 109.758,130.239 C 111.875,130.233 113.597,131.986 113.603,134.153 C 113.602,134.16 113.602,134.167 113.602,134.175 z "
   style="fill:white"
   id="path31623" />
			<path
   d="M 114.107,107.163 C 114.113,109.331 112.4,111.094 110.282,111.1 C 108.164,111.106 106.442,109.353 106.437,107.186 C 106.437,107.179 106.437,107.171 106.437,107.165 C 106.432,104.998 108.145,103.235 110.262,103.229 C 112.38,103.223 114.102,104.976 114.107,107.143 C 114.107,107.148 114.107,107.155 114.107,107.163 z "
   style="fill:white"
   id="path31625" />
			<path
   d="M 150.458,97.57 C 150.464,99.737 148.751,101.5 146.634,101.507 C 144.516,101.513 142.794,99.761 142.788,97.592 C 142.788,97.584 142.788,97.577 142.788,97.571 C 142.782,95.403 144.495,93.641 146.613,93.635 C 148.731,93.629 150.453,95.381 150.458,97.549 C 150.458,97.559 150.458,97.563 150.458,97.57 z "
   style="fill:white"
   id="path31627" />
			<path
   d="M 192.615,97.317 C 192.62,99.484 190.908,101.247 188.79,101.254 C 186.673,101.261 184.95,99.507 184.945,97.34 C 184.945,97.332 184.945,97.325 184.945,97.319 C 184.939,95.151 186.652,93.389 188.77,93.384 C 190.888,93.376 192.61,95.13 192.615,97.297 C 192.615,97.307 192.615,97.312 192.615,97.317 z "
   style="fill:white"
   id="path31629" />
			<path
   d="M 228.46,107.163 C 228.465,109.331 226.753,111.094 224.635,111.1 C 222.517,111.106 220.795,109.353 220.789,107.186 C 220.789,107.179 220.789,107.171 220.789,107.165 C 220.784,104.998 222.496,103.235 224.614,103.229 C 226.732,103.223 228.454,104.976 228.46,107.143 C 228.46,107.148 228.46,107.155 228.46,107.163 z "
   style="fill:white"
   id="path31631" />
			<path
   d="M 228.965,134.681 C 228.971,136.848 227.258,138.61 225.14,138.617 C 223.022,138.623 221.3,136.87 221.295,134.703 C 221.295,134.695 221.295,134.688 221.295,134.682 C 221.289,132.515 223.003,130.751 225.12,130.745 C 227.238,130.738 228.96,132.492 228.966,134.659 C 228.965,134.665 228.965,134.673 228.965,134.681 z "
   style="fill:white"
   id="path31633" />
		</g>
	</svg>