<?xml version="1.0" encoding="UTF-8" standalone="yes"?>
<!DOCTYPE svg PUBLIC "-//W3C//DTD SVG 1.1//EN" 
		"http://www.w3.org/Graphics/SVG/1.1/DTD/svg11.dtd">
<svg xmlns="http://www.w3.org/2000/svg" xmlns:xlink="http://www.w3.org/1999/xlink" version="1.1"
	width="1280px" height="640px" viewBox="0,0 30240,15120">
	<desc>Flag of Australia</desc>
	<defs>
		<polygon id="Star7" points="0,-9
			1.735534956470232481903073331393435018439963,-3.603875471609676504944409278029780204663677
			7.036483342212268278376000740066519752091011,-5.611408216728601774725043956038158295690473
			3.899711648727294428072526731975724868931143,-0.890083735825257617155610257987179037865422
			8.774351209636412463163185146945380955095072,2.002688405606829638600123080471152835197200
			3.127325929872119234833778106696231000929338,2.493959207434934122100019536016959242529099
			3.904953652058023084281914995635228791489917,8.108719811121772136124920875567005460493272
			0,4
			-3.904953652058023084281914995635228791489917,8.108719811121772136124920875567005460493272
			-3.127325929872119234833778106696231000929338,2.493959207434934122100019536016959242529099
			-8.774351209636412463163185146945380955095072,2.002688405606829638600123080471152835197200
			-3.899711648727294428072526731975724868931143,-0.890083735825257617155610257987179037865422
			-7.036483342212268278376000740066519752091011,-5.611408216728601774725043956038158295690473
			-1.735534956470232481903073331393435018439963,-3.603875471609676504944409278029780204663677"/>
		<polygon id="Star5" points="0,-9
			2.351141009169892516674823818556291074390610,-3.236067977499789696409173668731276235440618
			8.559508646656382149047954000414439290651288,-2.781152949374526816920640754645371529741391
			3.804226065180614288465757333517528573622795,1.236067977499789696409173668731276235440618
			5.290067270632258162518353591751654917378872,7.281152949374526816920640754645371529741391
			0,4
			-5.290067270632258162518353591751654917378872,7.281152949374526816920640754645371529741391
			-3.804226065180614288465757333517528573622795,1.236067977499789696409173668731276235440618
			-8.559508646656382149047954000414439290651288,-2.781152949374526816920640754645371529741391
			-2.351141009169892516674823818556291074390610,-3.236067977499789696409173668731276235440618"/>
	</defs>

	<g id="Blue" fill="#00008B">
		<path id="Background" d="M0,0H30240V15120H0z"/>
	</g>

	<g id="White" fill="#FFFFFF">
		<use xlink:href="#Star7" id="Commonwealth_Star" transform="translate(7560,11340) scale(252)"/>
		<use xlink:href="#Star7" id="Star_Alpha_Crucis" transform="translate(22680,12600) scale(120)"/>
		<use xlink:href="#Star7" id="Star_Beta_Crucis" transform="translate(18900,6615) scale(120)"/>
		<use xlink:href="#Star7" id="Star_Gamma_Crucis" transform="translate(22680,2520) scale(120)"/>
		<use xlink:href="#Star7" id="Star_Delta_Crucis" transform="translate(26040,5607) scale(120)"/>
		<use xlink:href="#Star5" id="Star_Epsilon_Crucis" transform="translate(24192,8190) scale(70)"/>
		<path id="White_Cross" d="M6300,0H8820V2520H15120V5040H8820V7560H6300V5040H0V2520H6300z"/>
		<path id="White_Diagonal" d="M0,0H1690.467390989841010485335293560844833993107480
			L15120,6714.766304505079494757332353219577583003446260V7560
			H13429.532609010158989514664706439155166006892520L0,845.233695494920505242667646780422416996553740z"/>
		<use xlink:href="#White_Diagonal" id="White_Diagonal_Flipped" transform="translate(15120) scale(-1,1)"/>
	</g>

	<g id="Red" fill="#FF0000">
		<path id="Red_Cross" d="M6804,0H8316V3024H15120V4536H8316V7560H6804V4536H0V3024H6804z"/>
		<path id="Red_Diagonals" d="M0,0L5040,2520H3913.021739340105993009776470959436777337928347
			L0,563.489130329947003495111764520281611331035827z
			M15120,0H13993.021739340105993009776470959436777337928347
			L8953.021739340105993009776470959436777337928347,2520H10080z"/>
		<use xlink:href="#Red_Diagonals" id="Red_Diagonals_Rotated" transform="translate(15120,7560) scale(-1)"/>
	</g>
</svg>
