<?xml version="1.0" encoding="UTF-8" standalone="no"?>
<!-- Created with Inkscape (http://www.inkscape.org/) -->
<svg xmlns:svg="http://www.w3.org/2000/svg" xmlns="http://www.w3.org/2000/svg" xmlns:xlink="http://www.w3.org/1999/xlink" version="1.0" width="1200" height="600" id="svg557">
  <defs id="defs559">
    <linearGradient x1="0" y1="0" x2="1" y2="0" id="linearGradient684" gradientUnits="objectBoundingBox" spreadMethod="pad">
      <stop id="stop685" style="stop-color:#000000;stop-opacity:1" offset="0"/>
      <stop id="stop686" style="stop-color:#ffffff;stop-opacity:1" offset="1"/>
    </linearGradient>
    <linearGradient x1="0" y1="0" x2="1" y2="0" id="linearGradient687" xlink:href="#linearGradient684" gradientUnits="objectBoundingBox" spreadMethod="pad"/>
  </defs>
  <rect width="1200" height="200" x="0" y="200" id="rect675" style="fill:#ffffff"/>
  <rect width="1200" height="200" x="0" y="400" id="rect714" style="fill:#00298c"/>
  <rect width="1200" height="200" x="0" y="0" id="rect713" style="fill:#de1818"/>
  <path d="M 480.77763,197.11385 C 517.60965,184.01097 558.44759,176.94112 598.36159,176.84044 C 638.27563,176.73979 678.98108,183.00269 719.20324,197.41625 L 749.14298,137.0146 L 728.09896,100.35655 C 728.09896,100.35655 690.55351,115.77811 690.24529,115.77811 C 689.937,115.77811 663.77222,86.981941 663.77222,86.981941 L 630.17206,107.28339 L 598.62021,83.153369 L 568.94148,106.91116 L 534.29337,86.884283 L 509.01973,116.91758 L 471.13765,100.71935 L 450.85703,137.04234 L 480.77763,197.11385 z" id="path3501" style="font-size:12px;fill:#ffffff;fill-opacity:1;fill-rule:evenodd;stroke:#de1818;stroke-width:1.60056734;stroke-linecap:round;stroke-opacity:1"/>
  <path d="M 672.71367,180.35909 L 689.85759,119.75212 L 726.57165,104.8521 L 745.9138,137.33048 L 718.14304,194.13549 C 702.17926,187.75705 693.62715,185.0244 672.71367,180.35909 z" id="path3503" style="font-size:12px;fill:#087ba5;fill-opacity:1;fill-rule:evenodd;stroke:#3477d9;stroke-width:0.40014129pt;stroke-opacity:1"/>
  <path d="M 527.38102,180.51717 L 511.35628,120.9332 L 535.46712,91.340156 L 569.77479,111.1474 L 575.56485,173.78119 C 558.80163,175.02508 546.68554,176.61723 527.38102,180.51717 z" id="path3505" style="font-size:12px;fill:none;fill-rule:evenodd;stroke-width:1pt;stroke-opacity:0.99607801"/>
  <path d="M 576.04175,173.79607 L 570.25234,111.02792 L 599.42874,87.834338 L 629.91243,110.97185 L 624.52573,173.85244 C 607.72945,172.96418 595.73411,172.99093 576.04175,173.79607 z" id="path3507" style="font-size:12px;fill:#087ba5;fill-opacity:1;fill-rule:evenodd;stroke:#3477d9;stroke-width:0.40014153pt;stroke-opacity:1"/>
  <path d="M 482.22066,194.09972 L 455.02361,136.56991 L 473.1993,104.81152 L 510.87727,121.21149 L 526.79746,180.56364 C 509.59461,184.12115 500.48477,187.0279 482.22066,194.09972 z" id="path3509" style="font-size:12px;fill:#087ba5;fill-opacity:1;fill-rule:evenodd;stroke:#3477d9;stroke-width:0.40014186pt;stroke-opacity:1"/>
  <path d="M 476.43049,165.22549 C 484.77992,166.03007 490.63561,165.59212 497.83018,163.1586 C 506.3252,159.1816 509.02686,154.56151 511.56543,150.81615 C 513.58502,158.10549 512.81633,164.92958 503.2099,170.50607 C 494.53924,175.00008 482.15627,173.67375 476.43049,165.22549 z" id="path3511" style="font-size:12px;fill:#ffffff;fill-rule:evenodd;stroke:#ffffff;stroke-width:0.36516166pt"/>
  <path d="M 607.37504,120.77339 L 605.73366,121.17607 L 605.79668,124.14858 L 603.77676,124.58218 L 602.36403,127.20354 L 603.23623,128.01365 C 603.28107,128.10124 602.54825,129.95252 602.57976,129.95252 C 602.61127,129.95252 603.11423,130.65086 603.11423,130.65086 L 603.65072,132.26117 L 605.0077,132.44666 L 605.35513,134.33559 L 607.50109,134.67604 L 609.48949,136.06956 L 609.61554,136.93674 L 611.88795,136.99856 L 613.4348,137.49398 L 618.83162,136.87451 L 619.55758,135.76002 L 619.6206,134.24285 L 622.52443,134.14971 L 622.78985,131.73008 L 624.32862,131.73008 L 624.13714,129.00528 L 625.42059,129.11863 L 625.08932,127.8127 L 624.29146,126.74934 L 624.1339,125.07759 L 621.8615,122.84821 L 621.35652,119.93752 C 621.35652,119.93752 619.9046,119.28714 619.9046,119.25622 C 619.9046,119.22531 619.81007,117.30546 619.81007,117.30546 L 621.45105,115.04516 L 621.29349,114.14746 L 619.77856,114.11615 L 618.64215,115.04516 C 618.64215,115.04516 617.12721,115.20013 617.12721,115.23104 C 617.12721,115.26196 617.12721,115.91234 617.12721,115.91234 C 617.12721,115.91234 617.50615,117.1818 617.50615,117.21272 C 617.50615,117.24363 615.77023,117.21272 615.77023,117.21272 L 615.7068,115.20013 L 613.24533,113.9925 C 613.24533,113.9925 610.94141,115.54058 610.94141,115.57149 C 610.94141,115.60241 610.81496,117.36769 610.81496,117.36769 L 609.71047,117.67722 L 608.57407,116.00509 L 606.58566,115.26196 L 605.51268,115.20013 L 605.48117,116.5005 L 607.56411,119.19439 L 607.37504,120.77339 z" id="path3515" style="font-size:12px;fill:#fffa00;fill-opacity:1;fill-rule:evenodd;stroke:#cca300;stroke-width:0.40014119pt;stroke-opacity:1"/>
  <path d="M 622.846,131.66231 L 622.3996,130.04209" id="path3517" style="font-size:12px;fill:none;fill-rule:evenodd;stroke:#cca300;stroke-width:0.40014119pt;stroke-opacity:1"/>
  <path d="M 624.09553,128.99101 L 623.33684,127.89633" id="path3519" style="font-size:12px;fill:none;fill-rule:evenodd;stroke:#cca300;stroke-width:0.40014119pt;stroke-opacity:1"/>
  <path d="M 603.29602,127.76514 L 605.66175,127.63356 L 606.10815,129.73533 L 606.91127,130.43605 L 607.04539,134.28961 L 607.80407,134.59598 L 608.02748,133.06335 L 609.85752,132.93217 L 610.21424,136.04102 L 609.76824,136.43537 L 609.9468,136.91692 L 612.13357,136.87332 C 612.13357,136.87332 612.62481,136.04102 612.66925,136.04102 C 612.71409,136.04102 613.91918,135.90983 613.91918,135.95343 C 613.91918,135.99742 614.41002,136.87332 614.41002,136.87332 L 614.76714,135.69066 C 614.76714,135.69066 615.92778,135.20911 615.92778,135.2531 C 615.92778,135.2967 616.86502,136.74174 616.86502,136.74174 L 618.47167,136.52296 L 617.48999,135.60346 L 617.08802,133.58889 L 619.31963,132.40663 L 620.21243,133.89566 C 620.21243,133.89566 621.0604,133.93925 621.01596,133.89566 C 620.97112,133.85166 620.03387,132.18785 620.03387,132.18785 L 620.03387,128.68464 L 621.7302,126.4077 L 624.09553,126.14493 L 624.09553,125.18143 L 621.7302,123.03568 L 621.10524,120.05801 L 619.76603,119.40128 L 619.40891,119.79524 L 617.93599,119.92682 L 619.40891,122.07258 L 619.40891,123.47363 L 620.07872,123.82399 L 619.94459,127.67755 C 619.94459,127.67755 618.29311,127.89633 618.29311,127.94032 C 618.29311,127.98392 618.15939,130.08569 618.15939,130.08569 L 617.13287,131.09317 C 617.13287,131.09317 616.55234,133.10735 616.5079,133.10735 C 616.46306,133.10735 615.52582,134.33321 615.52582,134.33321 L 613.69577,134.3772 C 613.69577,134.3772 612.62481,133.37012 612.62481,133.32612 C 612.62481,133.28253 612.44625,131.83749 612.44625,131.83749 C 612.44625,131.83749 611.73201,131.61831 611.68717,131.61831 C 611.64273,131.61831 611.28561,129.9981 611.28561,129.9981 L 610.03568,129.29777 L 609.9468,128.33428 L 608.74132,127.80874 C 608.74132,127.80874 608.6076,126.93284 608.56276,126.88924 C 608.51832,126.84525 607.98264,126.49529 607.9382,126.49529 C 607.89335,126.49529 607.89335,124.08676 607.89335,124.08676 L 608.96472,123.91158 L 608.3648,123.14269 L 608.1612,122.46654 L 608.1612,121.76582 L 609.054,120.88992 C 609.054,120.88992 607.44695,120.67114 607.44695,120.71474 C 607.44695,120.75873 605.88515,121.41546 605.88515,121.37186 C 605.92959,121.37186 605.84031,124.21794 605.84031,124.21794 L 604.01026,124.78748 L 602.53734,127.10802 L 603.29602,127.76514 z" id="path3521" style="font-size:12px;fill:#cca300;fill-opacity:1;fill-rule:evenodd;stroke:#cca300;stroke-width:0.40014119pt;stroke-opacity:1"/>
  <path d="M 612.53553,131.66231 L 613.74061,130.96159 L 613.69577,129.60414 L 612.53553,129.34137 L 612.08873,128.90342 L 613.38349,129.12259 L 614.99014,128.99101 L 615.52582,128.72824 C 615.30282,129.29777 615.12426,129.25378 615.07942,129.25378 C 615.03498,129.25378 614.18702,129.69173 614.18702,129.69173 L 614.23146,131.00558 C 614.23146,131.00558 616.99874,131.35554 616.95431,131.35554 C 616.90946,131.35554 616.95431,131.88108 616.86502,131.88108 C 616.77574,131.88108 614.00846,131.26795 614.00846,131.26795 L 612.26769,132.31904 L 612.53553,131.66231 z" id="path3523" style="font-size:12px;fill:#663d19;fill-opacity:1;fill-rule:evenodd;stroke:#cca300;stroke-width:0.2;stroke-miterlimit:4;stroke-dasharray:none;stroke-opacity:1"/>
  <path d="M 619.49819,123.51762 L 617.89155,124.74348 L 616.86502,126.53888 L 616.32934,126.62647 L 614.76714,124.5683 L 612.98193,124.6123 C 612.98193,124.6123 611.99985,127.02043 611.99985,127.06442 C 611.99985,127.10802 611.28561,126.97683 611.28561,126.97683 L 609.41112,124.96266 C 609.41112,124.96266 608.8306,123.95517 608.91988,123.95517 C 609.00916,123.95517 613.60649,123.99917 613.60649,123.99917 L 613.56205,121.80981 C 613.56205,121.80981 612.84781,121.59064 612.49069,121.37186 C 612.75853,121.28427 615.03498,121.28427 615.03498,121.28427 L 614.05289,121.941 L 614.05289,123.82399 L 618.11455,123.86758 L 619.49819,123.51762 z" id="path3525" style="font-size:12px;fill:#cca300;fill-opacity:1;fill-rule:evenodd;stroke:#cca300;stroke-width:0.40014119pt;stroke-opacity:1"/>
  <rect width="1.0712076" height="1.0509208" rx="0.33799267" ry="0.33157584" x="610.83929" y="124.56834" id="rect3527" style="font-size:12px;fill:#663d19;fill-opacity:1;fill-rule:evenodd;stroke-width:1pt"/>
  <rect width="1.0712076" height="1.0509208" rx="0.33799267" ry="0.33157584" x="615.92761" y="124.34943" id="rect3529" style="font-size:12px;fill:#663d19;fill-opacity:1;fill-rule:evenodd;stroke-width:1pt"/>
  <path d="M 608.42904,121.0651 C 610.12496,120.39371 611.33004,119.8539 613.42793,119.66405 C 615.40664,119.45954 616.93936,119.73698 618.69467,120.05801" id="path3531" style="font-size:12px;fill:none;fill-rule:evenodd;stroke:#cca300;stroke-width:0.40014119pt;stroke-opacity:1"/>
  <path d="M 609.36628,117.51829 L 607.98264,117.51829 L 606.01847,115.46012 L 607.13467,115.59171 L 608.42904,116.16085 L 609.36628,117.51829 z" id="path3533" style="font-size:12px;fill:#cca300;fill-opacity:1;fill-rule:evenodd;stroke:#cca300;stroke-width:0.40014119pt;stroke-opacity:1"/>
  <path d="M 617.71299,116.72998 L 620.8374,114.36584 L 619.81087,114.23426 L 618.65023,115.28494 L 617.26658,115.50412 L 617.71299,116.72998 z" id="path3535" style="font-size:12px;fill:#cca300;fill-opacity:1;fill-rule:evenodd;stroke:#cca300;stroke-width:0.40014119pt;stroke-opacity:1"/>
  <path d="M 615.87082,117.16437 L 610.97333,117.34311 L 611.01776,116.81757 L 612.80337,116.64239 L 613.02637,115.94207 C 613.02637,115.94207 613.56205,115.89847 613.56205,115.94207 C 613.56205,115.98606 613.96361,116.5988 613.96361,116.5988 L 615.70438,116.90516 L 615.87082,117.16437 z" id="path3537" style="font-size:12px;fill:#cca300;fill-opacity:1;fill-rule:evenodd;stroke:#cca300;stroke-width:0.40014119pt;stroke-opacity:1"/>
  <path d="M 615.6151,115.32894 L 613.91918,115.37253 L 613.78505,114.45304 L 615.6151,115.32894 z" id="path3539" style="font-size:12px;fill:#cca300;fill-opacity:1;fill-rule:evenodd;stroke:#cca300;stroke-width:0.40014119pt;stroke-opacity:1"/>
  <path d="M 612.75853,114.49703 L 612.62441,115.41613 L 610.97333,115.6789 L 612.75853,114.49703 z" id="path3541" style="font-size:12px;fill:#cca300;fill-opacity:1;fill-rule:evenodd;stroke:#cca300;stroke-width:0.40014119pt;stroke-opacity:1"/>
  <path d="M 603.3853,131.26795 L 604.23326,129.16619 L 603.47458,127.72115 L 602.7159,129.86691 L 603.3853,131.26795 z" id="path3543" style="font-size:12px;fill:#cca300;fill-opacity:1;fill-rule:evenodd;stroke:#cca300;stroke-width:0.40014119pt;stroke-opacity:1"/>
  <path d="M 605.08144,132.4068 L 606.10796,129.91068 L 604.14419,131.92486 L 605.08144,132.4068 z" id="path3545" style="font-size:12px;fill:#cca300;fill-opacity:1;fill-rule:evenodd;stroke:#cca300;stroke-width:0.40014119pt;stroke-opacity:1"/>
  <path d="M 580.28011,121.6486 L 578.63873,122.05128 L 578.70175,125.02379 L 576.68183,125.45738 L 575.2691,128.07874 L 576.1413,128.88885 C 576.18614,128.97644 575.45332,130.82772 575.48483,130.82772 C 575.51634,130.82772 576.0193,131.52607 576.0193,131.52607 L 576.55579,133.13638 L 577.91277,133.32186 L 578.2602,135.2108 L 580.40616,135.55125 L 582.39456,136.94476 L 582.52061,137.81194 L 584.79302,137.87377 L 586.33987,138.36919 L 591.73669,137.74972 L 592.46265,136.63522 L 592.52567,135.11805 L 595.4295,135.02491 L 595.69492,132.60529 L 597.23369,132.60529 L 597.04221,129.88048 L 598.32566,129.99384 L 597.99439,128.68791 L 597.19653,127.62454 L 597.03897,125.9528 L 594.76657,123.72342 L 594.26159,120.81273 C 594.26159,120.81273 592.80967,120.16234 592.80967,120.13143 C 592.80967,120.10052 592.71514,118.18067 592.71514,118.18067 L 594.35612,115.92037 L 594.19856,115.02267 L 592.68363,114.99136 L 591.54722,115.92037 C 591.54722,115.92037 590.03228,116.07534 590.03228,116.10625 C 590.03228,116.13716 590.03228,116.78755 590.03228,116.78755 C 590.03228,116.78755 590.41122,118.05701 590.41122,118.08793 C 590.41122,118.11884 588.6753,118.08793 588.6753,118.08793 L 588.61187,116.07534 L 586.1504,114.8677 C 586.1504,114.8677 583.84648,116.41579 583.84648,116.4467 C 583.84648,116.47762 583.72003,118.24289 583.72003,118.24289 L 582.61554,118.55243 L 581.47914,116.88029 L 579.49073,116.13716 L 578.41775,116.07534 L 578.38624,117.37571 L 580.46918,120.0696 L 580.28011,121.6486 z" id="path3549" style="font-size:12px;fill:#fffa00;fill-opacity:1;fill-rule:evenodd;stroke:#cca300;stroke-width:0.40014119pt;stroke-opacity:1"/>
  <path d="M 595.75107,132.53751 L 595.30467,130.9173" id="path3551" style="font-size:12px;fill:none;fill-rule:evenodd;stroke:#cca300;stroke-width:0.40014119pt;stroke-opacity:1"/>
  <path d="M 597.0006,129.86622 L 596.24191,128.77154" id="path3553" style="font-size:12px;fill:none;fill-rule:evenodd;stroke:#cca300;stroke-width:0.40014119pt;stroke-opacity:1"/>
  <path d="M 576.20109,128.64035 L 578.56682,128.50877 L 579.01322,130.61053 L 579.81634,131.31125 L 579.95046,135.16482 L 580.70914,135.47119 L 580.93255,133.93856 L 582.76259,133.80737 L 583.11931,136.91623 L 582.67331,137.31058 L 582.85187,137.79213 L 585.03864,137.74853 C 585.03864,137.74853 585.52988,136.91623 585.57432,136.91623 C 585.61916,136.91623 586.82425,136.78504 586.82425,136.82864 C 586.82425,136.87263 587.31509,137.74853 587.31509,137.74853 L 587.67221,136.56587 C 587.67221,136.56587 588.83285,136.08432 588.83285,136.12831 C 588.83285,136.17191 589.77009,137.61695 589.77009,137.61695 L 591.37674,137.39817 L 590.39506,136.47867 L 589.99309,134.4641 L 592.2247,133.28183 L 593.1175,134.77086 C 593.1175,134.77086 593.96547,134.81446 593.92103,134.77086 C 593.87619,134.72687 592.93894,133.06306 592.93894,133.06306 L 592.93894,129.55985 L 594.63527,127.2829 L 597.0006,127.02013 L 597.0006,126.05664 L 594.63527,123.91088 L 594.01031,120.93322 L 592.6711,120.27649 L 592.31398,120.67045 L 590.84106,120.80203 L 592.31398,122.94779 L 592.31398,124.34883 L 592.98379,124.69919 L 592.84966,128.55276 C 592.84966,128.55276 591.19818,128.77154 591.19818,128.81553 C 591.19818,128.85913 591.06446,130.96089 591.06446,130.96089 L 590.03794,131.96838 C 590.03794,131.96838 589.45741,133.98255 589.41297,133.98255 C 589.36813,133.98255 588.43089,135.20842 588.43089,135.20842 L 586.60084,135.25241 C 586.60084,135.25241 585.52988,134.24532 585.52988,134.20133 C 585.52988,134.15773 585.35132,132.71269 585.35132,132.71269 C 585.35132,132.71269 584.63708,132.49352 584.59224,132.49352 C 584.5478,132.49352 584.19068,130.8733 584.19068,130.8733 L 582.94075,130.17298 L 582.85187,129.20949 L 581.64639,128.68395 C 581.64639,128.68395 581.51267,127.80805 581.46783,127.76445 C 581.42339,127.72046 580.88771,127.37049 580.84327,127.37049 C 580.79842,127.37049 580.79842,124.96196 580.79842,124.96196 L 581.86979,124.78678 L 581.26987,124.01789 L 581.06627,123.34175 L 581.06627,122.64102 L 581.95907,121.76512 C 581.95907,121.76512 580.35202,121.54635 580.35202,121.58994 C 580.35202,121.63394 578.79022,122.29066 578.79022,122.24707 C 578.83466,122.24707 578.74538,125.09315 578.74538,125.09315 L 576.91533,125.66268 L 575.44241,127.98323 L 576.20109,128.64035 z" id="path3555" style="font-size:12px;fill:#cca300;fill-opacity:1;fill-rule:evenodd;stroke:#cca300;stroke-width:0.40014119pt;stroke-opacity:1"/>
  <path d="M 585.4406,132.53751 L 586.64568,131.83679 L 586.60084,130.47935 L 585.4406,130.21658 L 584.9938,129.77863 L 586.28856,129.9978 L 587.89521,129.86622 L 588.43089,129.60345 C 588.20789,130.17298 588.02933,130.12899 587.98449,130.12899 C 587.94005,130.12899 587.09209,130.56694 587.09209,130.56694 L 587.13653,131.88079 C 587.13653,131.88079 589.90381,132.23075 589.85938,132.23075 C 589.81453,132.23075 589.85938,132.75629 589.77009,132.75629 C 589.68081,132.75629 586.91353,132.14316 586.91353,132.14316 L 585.17276,133.19424 L 585.4406,132.53751 z" id="path3557" style="font-size:12px;fill:#663d19;fill-opacity:1;fill-rule:evenodd;stroke:#cca300;stroke-width:0.2;stroke-miterlimit:4;stroke-dasharray:none;stroke-opacity:1"/>
  <path d="M 592.40326,124.39283 L 590.79662,125.61869 L 589.77009,127.41409 L 589.23441,127.50168 L 587.67221,125.44351 L 585.887,125.4875 C 585.887,125.4875 584.90492,127.89564 584.90492,127.93963 C 584.90492,127.98323 584.19068,127.85204 584.19068,127.85204 L 582.31619,125.83786 C 582.31619,125.83786 581.73567,124.83038 581.82495,124.83038 C 581.91423,124.83038 586.51156,124.87437 586.51156,124.87437 L 586.46712,122.68502 C 586.46712,122.68502 585.75288,122.46584 585.39576,122.24707 C 585.6636,122.15948 587.94005,122.15948 587.94005,122.15948 L 586.95796,122.8162 L 586.95796,124.69919 L 591.01962,124.74279 L 592.40326,124.39283 z" id="path3559" style="font-size:12px;fill:#cca300;fill-opacity:1;fill-rule:evenodd;stroke:#cca300;stroke-width:0.40014119pt;stroke-opacity:1"/>
  <rect width="1.0712076" height="1.0509208" rx="0.33799267" ry="0.33157584" x="583.74438" y="125.44355" id="rect3561" style="font-size:12px;fill:#663d19;fill-opacity:1;fill-rule:evenodd;stroke-width:1pt"/>
  <rect width="1.0712076" height="1.0509208" rx="0.33799267" ry="0.33157584" x="588.8327" y="125.22464" id="rect3563" style="font-size:12px;fill:#663d19;fill-opacity:1;fill-rule:evenodd;stroke-width:1pt"/>
  <path d="M 581.33411,121.9403 C 583.03003,121.26891 584.23511,120.7291 586.333,120.53926 C 588.31171,120.33475 589.84443,120.61218 591.59974,120.93322" id="path3565" style="font-size:12px;fill:none;fill-rule:evenodd;stroke:#cca300;stroke-width:0.40014119pt;stroke-opacity:1"/>
  <path d="M 582.27135,118.3935 L 580.88771,118.3935 L 578.92354,116.33533 L 580.03974,116.46691 L 581.33411,117.03605 L 582.27135,118.3935 z" id="path3567" style="font-size:12px;fill:#cca300;fill-opacity:1;fill-rule:evenodd;stroke:#cca300;stroke-width:0.40014119pt;stroke-opacity:1"/>
  <path d="M 590.61806,117.60519 L 593.74247,115.24105 L 592.71594,115.10947 L 591.5553,116.16015 L 590.17165,116.37932 L 590.61806,117.60519 z" id="path3569" style="font-size:12px;fill:#cca300;fill-opacity:1;fill-rule:evenodd;stroke:#cca300;stroke-width:0.40014119pt;stroke-opacity:1"/>
  <path d="M 588.77589,118.03957 L 583.8784,118.21832 L 583.92283,117.69278 L 585.70844,117.5176 L 585.93144,116.81728 C 585.93144,116.81728 586.46712,116.77368 586.46712,116.81728 C 586.46712,116.86127 586.86868,117.474 586.86868,117.474 L 588.60945,117.78037 L 588.77589,118.03957 z" id="path3571" style="font-size:12px;fill:#cca300;fill-opacity:1;fill-rule:evenodd;stroke:#cca300;stroke-width:0.40014119pt;stroke-opacity:1"/>
  <path d="M 588.52017,116.20414 L 586.82425,116.24774 L 586.69012,115.32824 L 588.52017,116.20414 z" id="path3573" style="font-size:12px;fill:#cca300;fill-opacity:1;fill-rule:evenodd;stroke:#cca300;stroke-width:0.40014119pt;stroke-opacity:1"/>
  <path d="M 585.6636,115.37224 L 585.52948,116.29134 L 583.8784,116.55411 L 585.6636,115.37224 z" id="path3575" style="font-size:12px;fill:#cca300;fill-opacity:1;fill-rule:evenodd;stroke:#cca300;stroke-width:0.40014119pt;stroke-opacity:1"/>
  <path d="M 576.29037,132.14316 L 577.13833,130.0414 L 576.37965,128.59636 L 575.62097,130.74212 L 576.29037,132.14316 z" id="path3577" style="font-size:12px;fill:#cca300;fill-opacity:1;fill-rule:evenodd;stroke:#cca300;stroke-width:0.40014119pt;stroke-opacity:1"/>
  <path d="M 577.98651,133.28201 L 579.01303,130.78589 L 577.04926,132.80006 L 577.98651,133.28201 z" id="path3579" style="font-size:12px;fill:#cca300;fill-opacity:1;fill-rule:evenodd;stroke:#cca300;stroke-width:0.40014119pt;stroke-opacity:1"/>
  <path d="M 624.95826,173.76693 L 630.38248,110.81308 L 663.71833,91.632353 L 689.48709,119.56237 L 672.31334,180.21378 C 655.6671,176.81429 646.16943,175.35756 624.95826,173.76693 z" id="path3581" style="font-size:12px;fill:#00298c;fill-opacity:1;fill-rule:evenodd;stroke:#000082;stroke-width:0.400141pt;stroke-opacity:1"/>
  <path d="M 594.3293,145.16779 L 592.68792,145.57046 L 592.75094,148.54298 L 590.73102,148.97657 L 589.31829,151.59793 L 590.19049,152.40804 C 590.23533,152.49563 589.50251,154.34691 589.53402,154.34691 C 589.56553,154.34691 590.06849,155.04525 590.06849,155.04525 L 590.60498,156.65556 L 591.96196,156.84105 L 592.30939,158.72998 L 594.45535,159.07043 L 596.44375,160.46395 L 596.5698,161.33113 L 598.84221,161.39296 L 600.38906,161.88838 L 605.78588,161.26891 L 606.51184,160.15441 L 606.57486,158.63724 L 609.47869,158.5441 L 609.74411,156.12447 L 611.28288,156.12447 L 611.0914,153.39967 L 612.37485,153.51302 L 612.04358,152.2071 L 611.24572,151.14373 L 611.08816,149.47199 L 608.81576,147.2426 L 608.31078,144.33192 C 608.31078,144.33192 606.85886,143.68153 606.85886,143.65062 C 606.85886,143.6197 606.76433,141.69986 606.76433,141.69986 L 608.40531,139.43956 L 608.24775,138.54186 L 606.73282,138.51055 L 605.59641,139.43956 C 605.59641,139.43956 604.08147,139.59452 604.08147,139.62544 C 604.08147,139.65635 604.08147,140.30674 604.08147,140.30674 C 604.08147,140.30674 604.46041,141.5762 604.46041,141.60711 C 604.46041,141.63803 602.72449,141.60711 602.72449,141.60711 L 602.66106,139.59452 L 600.19959,138.38689 C 600.19959,138.38689 597.89567,139.93497 597.89567,139.96589 C 597.89567,139.9968 597.76922,141.76208 597.76922,141.76208 L 596.66473,142.07162 L 595.52833,140.39948 L 593.53992,139.65635 L 592.46694,139.59452 L 592.43543,140.8949 L 594.51837,143.58879 L 594.3293,145.16779 z" id="path3585" style="font-size:12px;fill:#fffa00;fill-opacity:1;fill-rule:evenodd;stroke:#cca300;stroke-width:0.40014119pt;stroke-opacity:1"/>
  <path d="M 609.80026,156.0567 L 609.35386,154.43648" id="path3587" style="font-size:12px;fill:none;fill-rule:evenodd;stroke:#cca300;stroke-width:0.40014119pt;stroke-opacity:1"/>
  <path d="M 611.04979,153.3854 L 610.2911,152.29072" id="path3589" style="font-size:12px;fill:none;fill-rule:evenodd;stroke:#cca300;stroke-width:0.40014119pt;stroke-opacity:1"/>
  <path d="M 590.25028,152.15954 L 592.61601,152.02795 L 593.06241,154.12972 L 593.86553,154.83044 L 593.99965,158.68401 L 594.75833,158.99037 L 594.98174,157.45775 L 596.81178,157.32656 L 597.1685,160.43541 L 596.7225,160.82977 L 596.90106,161.31131 L 599.08783,161.26772 C 599.08783,161.26772 599.57907,160.43541 599.62351,160.43541 C 599.66835,160.43541 600.87344,160.30423 600.87344,160.34782 C 600.87344,160.39182 601.36428,161.26772 601.36428,161.26772 L 601.7214,160.08505 C 601.7214,160.08505 602.88204,159.60351 602.88204,159.6475 C 602.88204,159.6911 603.81928,161.13613 603.81928,161.13613 L 605.42593,160.91736 L 604.44425,159.99786 L 604.04228,157.98329 L 606.27389,156.80102 L 607.16669,158.29005 C 607.16669,158.29005 608.01466,158.33365 607.97022,158.29005 C 607.92538,158.24606 606.98813,156.58224 606.98813,156.58224 L 606.98813,153.07904 L 608.68446,150.80209 L 611.04979,150.53932 L 611.04979,149.57583 L 608.68446,147.43007 L 608.0595,144.4524 L 606.72029,143.79568 L 606.36317,144.18963 L 604.89025,144.32122 L 606.36317,146.46698 L 606.36317,147.86802 L 607.03298,148.21838 L 606.89885,152.07195 C 606.89885,152.07195 605.24737,152.29072 605.24737,152.33472 C 605.24737,152.37831 605.11365,154.48008 605.11365,154.48008 L 604.08713,155.48756 C 604.08713,155.48756 603.5066,157.50174 603.46216,157.50174 C 603.41732,157.50174 602.48008,158.7276 602.48008,158.7276 L 600.65003,158.7716 C 600.65003,158.7716 599.57907,157.76451 599.57907,157.72052 C 599.57907,157.67692 599.40051,156.23188 599.40051,156.23188 C 599.40051,156.23188 598.68627,156.01271 598.64143,156.01271 C 598.59699,156.01271 598.23987,154.39249 598.23987,154.39249 L 596.98994,153.69217 L 596.90106,152.72867 L 595.69558,152.20313 C 595.69558,152.20313 595.56186,151.32723 595.51702,151.28364 C 595.47258,151.23964 594.9369,150.88968 594.89246,150.88968 C 594.84761,150.88968 594.84761,148.48115 594.84761,148.48115 L 595.91898,148.30597 L 595.31906,147.53708 L 595.11546,146.86093 L 595.11546,146.16021 L 596.00826,145.28431 C 596.00826,145.28431 594.40121,145.06553 594.40121,145.10913 C 594.40121,145.15312 592.83941,145.80985 592.83941,145.76625 C 592.88385,145.76625 592.79457,148.61234 592.79457,148.61234 L 590.96452,149.18187 L 589.4916,151.50241 L 590.25028,152.15954 z" id="path3591" style="font-size:12px;fill:#cca300;fill-opacity:1;fill-rule:evenodd;stroke:#cca300;stroke-width:0.40014119pt;stroke-opacity:1"/>
  <path d="M 599.48979,156.0567 L 600.69487,155.35598 L 600.65003,153.99853 L 599.48979,153.73576 L 599.04299,153.29781 L 600.33775,153.51699 L 601.9444,153.3854 L 602.48008,153.12263 C 602.25708,153.69217 602.07852,153.64817 602.03368,153.64817 C 601.98924,153.64817 601.14128,154.08612 601.14128,154.08612 L 601.18572,155.39997 C 601.18572,155.39997 603.953,155.74994 603.90857,155.74994 C 603.86372,155.74994 603.90857,156.27548 603.81928,156.27548 C 603.73,156.27548 600.96272,155.66235 600.96272,155.66235 L 599.22195,156.71343 L 599.48979,156.0567 z" id="path3593" style="font-size:12px;fill:#663d19;fill-opacity:1;fill-rule:evenodd;stroke:#cca300;stroke-width:0.2;stroke-miterlimit:4;stroke-dasharray:none;stroke-opacity:1"/>
  <path d="M 606.45245,147.91201 L 604.84581,149.13788 L 603.81928,150.93328 L 603.2836,151.02087 L 601.7214,148.9627 L 599.93619,149.00669 C 599.93619,149.00669 598.95411,151.41482 598.95411,151.45882 C 598.95411,151.50241 598.23987,151.37123 598.23987,151.37123 L 596.36538,149.35705 C 596.36538,149.35705 595.78486,148.34957 595.87414,148.34957 C 595.96342,148.34957 600.56075,148.39356 600.56075,148.39356 L 600.51631,146.2042 C 600.51631,146.2042 599.80207,145.98503 599.44495,145.76625 C 599.71279,145.67866 601.98924,145.67866 601.98924,145.67866 L 601.00715,146.33539 L 601.00715,148.21838 L 605.06881,148.26198 L 606.45245,147.91201 z" id="path3595" style="font-size:12px;fill:#cca300;fill-opacity:1;fill-rule:evenodd;stroke:#cca300;stroke-width:0.40014119pt;stroke-opacity:1"/>
  <rect width="1.0712076" height="1.0509208" rx="0.33799267" ry="0.33157584" x="597.79358" y="148.96274" id="rect3597" style="font-size:12px;fill:#663d19;fill-opacity:1;fill-rule:evenodd;stroke-width:1pt"/>
  <rect width="1.0712076" height="1.0509208" rx="0.33799267" ry="0.33157584" x="602.8819" y="148.74384" id="rect3599" style="font-size:12px;fill:#663d19;fill-opacity:1;fill-rule:evenodd;stroke-width:1pt"/>
  <path d="M 595.3833,145.45949 C 597.07922,144.7881 598.2843,144.24829 600.38219,144.05845 C 602.3609,143.85394 603.89362,144.13137 605.64893,144.4524" id="path3601" style="font-size:12px;fill:none;fill-rule:evenodd;stroke:#cca300;stroke-width:0.40014119pt;stroke-opacity:1"/>
  <path d="M 596.32054,141.91269 L 594.9369,141.91269 L 592.97273,139.85452 L 594.08893,139.9861 L 595.3833,140.55524 L 596.32054,141.91269 z" id="path3603" style="font-size:12px;fill:#cca300;fill-opacity:1;fill-rule:evenodd;stroke:#cca300;stroke-width:0.40014119pt;stroke-opacity:1"/>
  <path d="M 604.66725,141.12438 L 607.79166,138.76024 L 606.76513,138.62865 L 605.60449,139.67934 L 604.22084,139.89851 L 604.66725,141.12438 z" id="path3605" style="font-size:12px;fill:#cca300;fill-opacity:1;fill-rule:evenodd;stroke:#cca300;stroke-width:0.40014119pt;stroke-opacity:1"/>
  <path d="M 602.82508,141.55876 L 597.92759,141.73751 L 597.97202,141.21197 L 599.75763,141.03679 L 599.98063,140.33646 C 599.98063,140.33646 600.51631,140.29287 600.51631,140.33646 C 600.51631,140.38046 600.91787,140.99319 600.91787,140.99319 L 602.65864,141.29956 L 602.82508,141.55876 z" id="path3607" style="font-size:12px;fill:#cca300;fill-opacity:1;fill-rule:evenodd;stroke:#cca300;stroke-width:0.40014119pt;stroke-opacity:1"/>
  <path d="M 602.56936,139.72333 L 600.87344,139.76693 L 600.73931,138.84743 L 602.56936,139.72333 z" id="path3609" style="font-size:12px;fill:#cca300;fill-opacity:1;fill-rule:evenodd;stroke:#cca300;stroke-width:0.40014119pt;stroke-opacity:1"/>
  <path d="M 599.71279,138.89142 L 599.57867,139.81053 L 597.92759,140.0733 L 599.71279,138.89142 z" id="path3611" style="font-size:12px;fill:#cca300;fill-opacity:1;fill-rule:evenodd;stroke:#cca300;stroke-width:0.40014119pt;stroke-opacity:1"/>
  <path d="M 590.33956,155.66235 L 591.18752,153.56058 L 590.42884,152.11554 L 589.67016,154.2613 L 590.33956,155.66235 z" id="path3613" style="font-size:12px;fill:#cca300;fill-opacity:1;fill-rule:evenodd;stroke:#cca300;stroke-width:0.40014119pt;stroke-opacity:1"/>
  <path d="M 592.0357,156.80119 L 593.06222,154.30508 L 591.09845,156.31925 L 592.0357,156.80119 z" id="path3615" style="font-size:12px;fill:#cca300;fill-opacity:1;fill-rule:evenodd;stroke:#cca300;stroke-width:0.40014119pt;stroke-opacity:1"/>
  <path d="M 633.22174,162.4915 L 631.5509,164.44583 L 631.67934,166.08508 L 635.14956,166.02205 C 636.26337,165.75929 636.54175,165.37047 636.75619,164.91866 C 637.0988,164.36181 636.86323,164.05702 636.94895,163.31112 L 633.22174,162.4915 z" id="path3617" style="font-size:12px;fill:#de1818;fill-opacity:1;fill-rule:evenodd;stroke:#e61717;stroke-width:0.40014186pt;stroke-opacity:1"/>
  <path d="M 641.4613,167.11811 L 639.92931,168.3034 L 639.78734,169.80991 L 642.86456,170.03657 C 643.998,169.87946 644.16557,169.6946 644.4215,169.26531 C 644.81487,168.74264 644.70767,168.7433 644.86299,168.00871 L 641.4613,167.11811 z" id="path3619" style="font-size:12px;fill:#de1818;fill-opacity:1;fill-rule:evenodd;stroke:#e61717;stroke-width:0.40014186pt;stroke-opacity:1"/>
  <path d="M 655.13531,163.18498 L 653.52869,164.82422 L 653.59291,166.08497 L 656.87037,166.211 C 657.98418,165.94823 657.81247,166.00095 658.15543,165.42309 C 658.49804,164.86623 658.39137,164.75049 658.47709,164.00458 L 655.13531,163.18498 z" id="path3621" style="font-size:12px;fill:#de1818;fill-opacity:1;fill-rule:evenodd;stroke:#e61717;stroke-width:0.40014186pt;stroke-opacity:1"/>
  <path d="M 664.71019,166.14821 L 662.84669,167.72403 L 662.84669,169.30026 L 666.31682,169.61576 C 667.43062,169.35299 667.51634,169.02719 667.795,168.63837 C 668.13752,168.08153 667.96626,168.02882 668.05189,167.28291 L 664.71019,166.14821 z" id="path3623" style="font-size:12px;fill:#de1818;fill-opacity:1;fill-rule:evenodd;stroke:#e61717;stroke-width:0.40014186pt;stroke-opacity:1"/>
  <path d="M 641.38303,124.91603 L 647.9377,129.26623 C 649.16989,128.24408 651.73315,128.86354 652.73699,129.14693 C 654.53957,129.61738 655.81008,130.68471 657.38451,130.96849 C 660.26403,131.6922 663.71404,132.19198 666.32698,131.90819 C 668.94046,131.62481 671.13523,130.25905 673.06424,129.26623 L 673.06424,128.63604 L 671.77918,128.63604 C 669.693,129.3867 666.76984,129.42793 664.53134,129.13385 C 662.29285,128.83977 661.6897,127.83626 658.34837,126.87078 L 658.0914,126.2402 C 662.14748,126.43281 662.9711,126.32779 664.66912,125.58745 C 666.32907,125.14671 667.07695,124.18321 668.0141,123.51776 L 667.98785,122.77267 L 666.76664,122.70963 C 665.1935,123.75755 664.19075,123.94699 661.78055,123.72624 C 659.58742,123.50427 657.61194,122.25582 656.14052,122.22967 C 654.58001,122.24156 654.65355,121.49606 653.14427,121.42274 C 650.74495,121.21268 648.15186,121.53252 645.88143,122.07907 C 643.16101,122.89868 642.75372,123.59188 641.38303,124.91603 z" id="path3625" style="font-size:12px;fill:#de1818;fill-opacity:1;fill-rule:evenodd;stroke:#cc0000;stroke-width:0.40014186pt;stroke-opacity:1"/>
  <path d="M 642.65602,123.95136 C 643.28341,124.09404 643.98719,124.27476 644.50022,124.56686 C 645.01372,124.85896 644.8807,124.85302 645.43216,125.25689 C 645.3437,124.73492 645.36877,124.77217 645.014,124.36197 C 644.65885,123.95136 644.07565,123.57842 643.60699,123.2423 L 642.65602,123.95136 z" id="path3627" style="font-size:12px;fill:#8e3737;fill-opacity:1;fill-rule:evenodd;stroke:#8f3636;stroke-width:0.40014186pt;stroke-opacity:1"/>
  <path d="M 648.13247,128.6523 C 648.14491,128.08674 647.85362,127.59528 647.638,127.10422 C 647.42265,126.61315 647.2449,126.19621 646.83935,125.70515 C 647.34626,125.84784 647.62538,126.06543 648.05644,126.58144 C 648.48706,127.09788 648.46208,127.61391 648.55054,128.35346 L 648.13247,128.6523 z" id="path3629" style="font-size:12px;fill:#8e3737;fill-opacity:1;fill-rule:evenodd;stroke:#8f3636;stroke-width:0.40014186pt;stroke-opacity:1"/>
  <path d="M 649.38761,121.75011 C 649.53985,122.14209 649.83844,122.4112 650.0913,123.24745 C 650.30994,124.00725 650.41414,125.07061 650.41414,125.07061 C 650.33172,124.50463 650.47754,123.86417 650.39512,123.29821 C 650.31269,122.73262 650.00201,122.24117 649.91968,121.6752 L 649.38761,121.75011 z" id="path3631" style="font-size:12px;fill:#8e3737;fill-opacity:1;fill-rule:evenodd;stroke:#8f3636;stroke-width:0.40014186pt;stroke-opacity:1"/>
  <path d="M 654.71155,122.08581 L 654.97777,125.22003 L 655.28232,122.27248 L 654.71155,122.08581 z" id="path3633" style="font-size:12px;fill:#8e3737;fill-opacity:1;fill-rule:evenodd;stroke:#8f3636;stroke-width:0.40014186pt;stroke-opacity:1"/>
  <path d="M 653.41863,128.57773 C 653.54552,128.06804 653.52017,127.55796 653.4566,127.04787 C 653.39329,126.53818 653.21545,126.103 653.03815,125.51842 C 653.54515,125.95358 653.74833,126.50095 654.02708,127.08552 C 654.02708,127.66971 653.87522,128.17942 653.41863,128.57773 z" id="path3635" style="font-size:12px;fill:#8e3737;fill-opacity:1;fill-rule:evenodd;stroke:#8f3636;stroke-width:0.40014186pt;stroke-opacity:1"/>
  <path d="M 658.93304,127.19718 C 658.95198,127.19718 659.09506,128.26055 658.85263,129.02549 C 658.61029,129.79041 658.43904,129.84629 657.98245,130.25688 C 658.5908,129.80943 659.12333,129.66001 659.31352,129.17489 C 659.50381,128.42859 659.00898,127.30935 658.93304,127.19718 z" id="path3637" style="font-size:12px;fill:#8e3737;fill-opacity:1;fill-rule:evenodd;stroke:#8f3636;stroke-width:0.40014186pt;stroke-opacity:1"/>
  <path d="M 659.88355,126.19009 C 659.50344,126.25231 659.42742,124.67253 659.19926,123.91393 C 659.36411,123.82674 659.52896,123.85172 659.69372,124.21237 C 659.87101,124.42402 659.82025,125.53099 659.88355,126.19009 z" id="path3639" style="font-size:12px;fill:#8e3737;fill-opacity:1;fill-rule:evenodd;stroke:#8f3636;stroke-width:0.40014186pt;stroke-opacity:1"/>
  <path d="M 663.64854,125.55551 L 663.80094,124.24956 L 664.21903,124.21232 C 664.21903,124.21232 664.21903,125.29431 664.21903,125.33158 C 664.21903,125.36921 663.68696,125.59276 663.64854,125.55551 z" id="path3641" style="font-size:12px;fill:#8e3737;fill-opacity:1;fill-rule:evenodd;stroke:#8f3636;stroke-width:0.40014186pt;stroke-opacity:1"/>
  <path d="M 663.34435,129.0627 C 663.5855,129.4606 664.0162,129.93343 664.06707,130.36861 C 664.11794,130.80379 663.97824,131.01543 663.6489,131.67454 L 664.25735,131.71181 C 664.5866,131.18348 664.68842,130.80418 664.63792,130.38764 C 664.58697,129.9707 664.38379,129.55414 663.95318,129.2121 L 663.34435,129.0627 z" id="path3643" style="font-size:12px;fill:#8e3737;fill-opacity:1;fill-rule:evenodd;stroke:#8f3636;stroke-width:0.40014186pt;stroke-opacity:1"/>
  <path d="M 667.87039,129.39878 L 668.02234,131.22667 L 668.51672,130.96548 L 668.40281,129.39878 L 667.87039,129.39878 z" id="path3645" style="font-size:12px;fill:#8e3737;fill-opacity:1;fill-rule:evenodd;stroke:#8f3636;stroke-width:0.40014186pt;stroke-opacity:1"/>
  <path d="M 640.97657,125.23866 C 639.49327,125.66789 638.95672,126.4875 638.23081,127.19577 L 634.05112,125.07892 C 633.37333,125.64133 633.11224,126.44471 633.43829,127.2671 C 633.76433,128.08911 635.07555,129.37602 636.00813,130.01214 C 635.77457,131.14763 635.43042,132.00452 635.02276,133.00051 C 634.56828,134.12016 633.59262,135.53467 633.56435,135.98888 C 633.50864,136.50888 633.33894,137.62296 634.11654,137.91983 C 634.89469,138.21668 637.39611,137.71414 638.23081,137.76923 C 638.09505,138.21589 637.77018,138.99708 637.88088,139.33236 C 637.99157,139.66768 638.2158,139.77945 638.89497,139.79887 C 638.69929,140.21382 638.27727,140.73976 638.47964,140.98748 C 639.00402,141.38422 639.60478,141.31563 640.11014,141.28473 C 639.8128,141.62947 639.34933,142.09308 638.85153,142.58018 C 638.0147,143.399 637.0808,144.28414 636.67577,144.78239 C 635.99231,145.70666 635.93366,146.70503 637.25843,146.60713 C 636.76552,147.15328 636.29164,147.68081 636.3672,148.15242 C 636.48119,148.71722 636.76515,149.09611 637.712,148.76874 C 637.15176,150.03582 637.5198,151.17292 637.71731,152.49549 C 637.23895,153.49624 637.44213,154.42288 637.32339,155.57226 C 636.34899,156.12396 636.22778,156.84291 635.59435,157.95225 C 635.02313,159.15317 633.95983,159.48092 633.37003,162.05751 L 637.19375,163.0111 C 637.33426,162.48118 637.83441,162.13717 637.97511,161.60766 C 638.11526,161.07776 638.10428,160.41786 638.03603,159.83208 C 638.7948,158.73343 640.32988,156.46401 640.82316,155.254 C 641.65812,154.80812 642.26539,154.52908 642.89196,154.52908 C 643.51852,154.52908 643.91721,154.90087 644.58174,155.254 C 644.28771,156.27377 643.46317,157.38588 643.41551,158.81467 L 643.41551,162.75704 C 643.24901,163.73639 642.1353,163.74945 641.66544,166.699 L 645.10053,167.58917 C 645.68383,166.59713 646.60772,166.46042 646.85015,166.06327 L 647.09825,161.96755 C 647.53536,160.0342 650.246,158.4358 650.28525,156.33521 C 651.25808,156.32213 651.62529,156.42121 652.01098,156.22224 C 652.52942,156.04192 652.70707,155.75021 653.11197,155.38399 C 653.26786,156.01615 653.76517,156.07165 654.18654,156.07165 C 654.60755,156.07165 655.44534,155.47713 655.79115,155.23537 C 656.03441,155.57819 656.16321,155.90239 656.6714,156.0221 C 657.17968,156.1418 658.61578,155.92697 659.19999,155.78627 L 656.37728,160.40439 C 656.27189,160.84946 656.41287,161.1273 656.19395,161.6469 C 655.98867,162.11339 655.57506,162.33811 655.38871,162.76775 L 658.5887,163.53226 L 659.09936,162.18472 C 659.7777,161.89896 660.32386,161.7432 660.68019,161.30882 C 661.03642,160.87445 661.03331,160.04926 661.23805,159.57764 C 662.33127,158.78416 664.04942,157.06129 665.25608,155.63567 C 666.07531,155.77398 667.23558,156.45132 667.67598,157.46358 C 667.73782,158.54954 667.81778,160.54668 667.33008,161.93028 L 665.25608,165.17309 L 665.02097,165.70497 L 668.286,166.86824 L 670.36,165.27853 L 670.44087,163.0111 C 671.48268,161.17131 672.97339,160.16579 674.39422,159.0057 C 674.39422,158.94191 674.54571,156.57062 674.48873,156.47788 C 674.1377,156.21075 673.90058,156.37128 673.77653,155.88101 C 673.65294,155.39114 673.73728,154.04598 673.80315,153.51883 C 674.00834,153.26438 674.44106,152.97228 674.41883,152.75508 C 673.85374,152.13482 674.02664,150.52926 674.19982,149.27725 C 674.15738,147.85162 676.10477,146.16602 676.40327,145.33528 L 676.52486,143.83873 C 676.3257,143.47092 676.0324,143.25174 676.02271,142.93943 C 676.01338,142.6275 676.40118,142.11071 676.63839,141.77976 L 677.05116,141.07546 L 676.98658,137.38756 C 676.87094,136.98923 676.52806,136.36817 676.20403,136.30437 C 675.87963,136.24096 675.40419,136.6052 675.04219,137.00588 L 673.16579,138.39108 C 672.26605,138.66613 671.47985,138.77433 669.89829,138.38037 L 667.48569,138.42833 C 666.21885,138.78225 665.55787,138.83933 664.36649,138.31974 L 662.93799,138.34271 C 662.49283,138.58529 661.87669,138.97567 661.39366,139.06922 C 660.91091,139.16233 660.25726,139.18138 659.77405,139.03314 C 656.08637,139.28126 657.00229,139.5476 655.94823,139.77707 C 655.10192,139.61654 655.37344,139.19603 652.0838,139.16514 L 650.77971,138.78346 C 649.1343,137.69312 647.86744,135.95242 646.77139,133.95132 C 650.19888,132.96959 651.637,131.95023 652.67688,129.61183 L 647.83029,129.79296 L 640.97657,125.23866 z" id="path3647" style="font-size:12px;fill:#fffa00;fill-opacity:1;fill-rule:evenodd;stroke:#efd608;stroke-width:0.40014186pt;stroke-opacity:1"/>
  <path d="M 639.26127,131.21997 L 640.63351,131.80139 C 640.8012,132.00075 641.12597,132.23062 641.34095,132.24411 C 641.55539,132.25718 641.73835,132.03839 641.92178,131.88145 L 643.18516,131.21997 C 642.43655,131.11178 642.2083,130.64726 641.41249,130.64726 C 640.61659,130.64726 640.05708,131.065 639.26127,131.21997 z" id="path3649" style="font-size:12px;fill:#664c00;fill-opacity:1;fill-rule:evenodd;stroke:#664c00;stroke-width:0.40014186pt;stroke-opacity:1"/>
  <path d="M 641.78117,147.40627 C 641.78062,147.51964 641.59088,147.60248 641.49547,147.46811 C 641.37791,145.85979 641.0236,144.73142 640.52757,143.47899 C 641.08736,144.43178 641.55246,145.97314 641.78117,147.40627 z" id="path3653" style="font-size:12px;fill:#cca300;fill-opacity:1;fill-rule:evenodd;stroke:#cca300;stroke-width:0.40014186pt;stroke-opacity:1"/>
  <path d="M 649.84,147.58053 C 650.12122,147.65783 650.51312,147.65822 650.60479,147.47233 C 650.72391,147.12752 650.36923,146.75179 650.2364,146.3297 C 649.77385,145.42328 649.51724,144.43996 649.32367,144.01389 C 649.12021,143.88549 648.90074,143.89697 648.94923,144.10942 C 649.21471,144.91557 649.66957,147.2698 649.84,147.58053 z" id="path3657" style="font-size:12px;fill:#cca300;fill-opacity:1;fill-rule:evenodd;stroke:#cca300;stroke-width:0.40014186pt;stroke-opacity:1"/>
  <path d="M 654.26037,147.09264 C 654.29074,147.28804 653.62667,147.00386 653.51469,146.7815 C 653.50499,146.3499 652.61092,143.19307 652.75886,143.07101 C 652.94676,142.97906 653.52923,144.12606 653.71704,144.65399 C 653.76115,144.96629 654.15296,146.11449 654.26037,147.09264 z" id="path3659" style="font-size:12px;fill:#cca300;fill-opacity:1;fill-rule:evenodd;stroke:#cca300;stroke-width:0.40014186pt;stroke-opacity:1"/>
  <path d="M 653.63389,153.59771 C 653.61815,153.81846 654.13887,153.63694 654.34407,153.47089 C 654.93908,152.54068 655.67634,151.56411 655.89297,151.19156 C 656.02343,150.79323 656.6747,148.25867 656.4738,148.27888 C 656.40289,148.20555 655.83643,149.53606 655.10521,150.8491 C 654.34444,152.18635 653.62575,153.4697 653.63389,153.59771 z" id="path3661" style="font-size:12px;fill:#cca300;fill-opacity:1;fill-rule:evenodd;stroke:#cca300;stroke-width:0.40014186pt;stroke-opacity:1"/>
  <path d="M 658.06725,152.2355 C 657.85062,152.33973 658.50189,150.04416 658.55357,149.63751 C 658.67278,148.99466 658.83872,147.84092 659.09981,146.34675 C 659.41855,148.43345 659.04246,150.67513 658.06725,152.2355 z" id="path3663" style="font-size:12px;fill:#cca300;fill-opacity:1;fill-rule:evenodd;stroke:#cca300;stroke-width:0.40014186pt;stroke-opacity:1"/>
  <path d="M 660.7262,145.20965 C 660.58404,145.33371 658.67963,142.1856 658.85455,142.17015 C 658.9035,142.03063 660.45065,144.14034 660.67167,144.5117 C 660.7638,144.68768 660.8551,144.95639 660.7262,145.20965 z" id="path3665" style="font-size:12px;fill:#cca300;fill-opacity:1;fill-rule:evenodd;stroke:#cca300;stroke-width:0.40014186pt;stroke-opacity:1"/>
  <path d="M 665.18298,147.54685 C 665.04082,147.43945 665.09771,146.43433 664.81567,145.33052 C 664.53418,144.22673 664.05499,143.16297 664.14996,142.86096 C 664.23888,142.70203 664.54873,142.77535 664.79555,142.98779 C 664.9131,143.58823 665.18819,145.89212 665.51104,147.39069 C 665.50656,147.53574 665.34491,147.63443 665.18298,147.54685 z" id="path3667" style="font-size:12px;fill:#cca300;fill-opacity:1;fill-rule:evenodd;stroke:#cca300;stroke-width:0.40014186pt;stroke-opacity:1"/>
  <path d="M 668.2977,144.7499 C 668.14539,144.58779 668.71129,145.83071 669.12342,147.30746 C 669.53547,148.7846 669.74643,151.39369 669.8466,151.20819 C 670.12974,151.02033 670.08162,150.7861 670.52276,150.69097 C 670.96361,150.59625 672.60408,150.74884 672.50876,150.63868 C 671.49394,149.73461 670.55797,148.98513 669.85867,148.00382 C 669.15975,147.02249 668.6972,145.73121 668.2977,144.7499 z" id="path3669" style="font-size:12px;fill:#cca300;fill-opacity:1;fill-rule:evenodd;stroke:#cca300;stroke-width:0.40014186pt;stroke-opacity:1"/>
  <path d="M 672.68587,180.34202 L 689.9682,119.42559 L 726.65169,104.64767 L 746.10674,137.5439 L 718.26078,194.09384 C 702.50997,188.14091 693.502,184.96077 672.68587,180.34202 z" id="path3673" style="font-size:12px;fill:none;fill-rule:evenodd;stroke-width:1pt;stroke-opacity:0.99607801"/>
  <path d="M 684.1443,140.0545 C 693.55442,142.04252 702.26544,144.3048 710.97663,147.11523 C 719.68728,149.92563 727.97902,153.2846 736.41065,156.91782 L 722.29582,185.4354 C 714.41731,182.43713 706.63814,180.02026 698.85861,177.50708 C 691.07953,174.99352 683.49797,172.77048 675.61991,170.35401 L 684.1443,140.0545 z" id="path3677" style="font-size:12px;fill:#ffffff;fill-opacity:1;fill-rule:evenodd;stroke:#ffffff;stroke-width:0.40014186pt;stroke-opacity:1"/>
  <path d="M 682.2699,146.79102 C 682.2699,146.79102 695.41235,149.72352 708.14743,153.81966 C 720.88268,157.91539 733.30882,163.17437 733.25942,163.17437 C 733.16053,163.17437 725.25493,179.46182 725.25493,179.46182 C 717.58043,176.40803 709.51007,173.54768 701.53906,170.97864 C 693.56769,168.40958 685.59659,165.93765 677.42771,164.0471 L 682.2699,146.79102 z" id="path3679" style="font-size:12px;fill:#de1818;fill-opacity:1;fill-rule:evenodd;stroke:#e61717;stroke-width:0.40014186pt;stroke-opacity:1"/>
  <path d="M 683.36184,154.7562 C 684.65459,154.03408 685.53008,153.83908 686.22608,152.64889 L 690.88001,152.64929 L 690.94012,154.34639 C 692.08374,154.89293 692.75001,155.49815 693.89364,156.04429 C 695.03736,156.59083 696.65863,157.07834 697.80225,157.62489 L 707.82669,158.50315 C 709.16911,158.71758 711.10864,159.28354 712.27212,159.96642 C 713.43561,160.64971 714.18174,161.50819 714.8084,162.60087 C 716.86667,163.32301 718.92577,163.75224 721.04379,164.06455 C 723.16244,164.37647 725.81737,164.51319 727.87601,164.59129 C 728.89038,164.94283 728.89038,165.46956 728.41292,165.9963 C 728.41292,165.9963 727.27891,167.53289 724.18358,167.54755 C 721.08834,167.56221 717.58252,165.82072 716.06107,166.05495 C 716.12099,166.99149 717.7321,168.92364 719.5818,169.68459 L 719.52243,174.13308 L 718.68664,174.89443 L 717.79175,174.30905 C 718.50806,173.25558 718.26883,172.02576 717.97069,170.9723 C 717.28438,169.97709 717.1951,169.56727 715.9125,169.50902 C 714.3906,169.21573 713.28648,168.80593 711.34741,167.45957 L 710.63119,167.57689 C 710.21348,168.31845 709.79568,168.82575 708.84114,169.27439 L 706.87206,169.15748 C 706.87206,169.15748 702.33688,168.16227 702.33688,168.10361 C 702.33688,168.04535 702.27723,167.4013 702.39681,167.34265 C 702.51601,167.284 703.94808,167.28441 704.0672,167.28441 C 705.02227,167.57689 707.05118,167.57689 707.05118,167.57689 L 706.99118,165.87896 L 710.03445,165.7034 C 709.41794,163.59608 709.21879,162.24935 706.39452,161.78126 L 697.56312,162.0155 L 697.68259,163.24491 C 695.47484,162.95203 691.47702,162.89972 689.43504,163.57626 C 688.24155,163.6936 686.52423,164.2984 685.74864,164.2984 L 684.85339,164.06455 C 684.25673,163.88898 684.25673,163.7134 684.49541,163.18627 C 688.31427,162.89338 688.9113,162.60087 690.04495,162.07416 C 690.10478,161.723 689.62715,160.96163 689.4483,160.90298 C 687.0616,160.78607 685.15198,160.96163 684.49587,160.84471 C 683.48141,160.55182 682.10871,160.02507 682.10871,159.96642 C 682.10871,159.90779 681.92977,159.02989 681.9895,159.02989 C 682.04878,159.02989 683.54124,159.4397 683.60016,159.4397 C 685.21163,159.7322 688.01613,159.61528 688.67262,159.26413 L 688.73245,157.97603 C 688.67262,157.39063 688.2549,156.8639 688.13533,156.80524 C 688.01613,156.74661 685.50977,156.4541 684.61461,156.4541 C 683.16259,156.20044 683.3816,155.47833 683.36184,154.7562 z" id="path3681" style="font-size:12px;fill:#000000;fill-opacity:1;fill-rule:evenodd;stroke:#000000;stroke-width:0.40014186pt;stroke-opacity:1"/>
  <path d="M 702.63503,165.17666 C 703.98761,165.60591 704.98221,165.74225 706.99118,165.87896 L 710.03445,165.7034 C 709.41794,163.59608 709.21879,162.24935 706.39452,161.78126 L 697.56312,162.0155 L 697.68259,163.24491 C 700.36799,164.23973 701.68049,164.78628 702.63503,165.17666 z" id="path3683" style="font-size:12px;fill:#ffffff;fill-opacity:1;fill-rule:evenodd;stroke:#000000;stroke-width:0.40014186pt;stroke-opacity:1"/>
  <path d="M 527.25158,180.33062 L 511.29172,120.8504 L 535.64533,91.347572 L 569.79438,110.84245 L 575.58287,173.87159 C 558.15818,175.16297 546.86953,176.8399 527.25158,180.33062 z" id="path3685" style="font-size:12px;fill:#00298c;fill-opacity:1;fill-rule:evenodd;stroke:#000082;stroke-width:0.40014143pt;stroke-opacity:1"/>
  <path d="M 470.13845,130.76003 L 475.98177,135.30379 L 474.88729,143.2504 L 482.41131,140.12175 L 488.38049,144.6578 L 489.19782,137.34876 L 495.37336,134.92291 L 490.26712,130.0239 L 491.40318,122.75769 C 491.40318,122.75769 483.97887,125.44545 483.97507,125.38374 C 483.9713,125.32203 478.63995,120.87119 478.58044,120.9368 C 478.52131,121.00237 477.35859,127.83621 477.35859,127.83621 L 470.13845,130.76003 z" id="path3687" style="font-size:12px;fill:#fffa00;fill-opacity:1;fill-rule:evenodd;stroke:#ffc700;stroke-width:0.5;stroke-miterlimit:4;stroke-dasharray:none;stroke-opacity:1"/>
  <path d="M 470.26822,130.81403 L 495.30671,134.86545 L 489.07538,137.41821 L 483.05844,133.13327 C 483.05844,133.13327 488.43203,144.46841 488.36536,144.41056 C 488.29866,144.35271 482.67089,140.22975 482.47044,140.05618 L 482.99555,133.13711 C 482.99555,133.13711 475.00953,143.18099 475.00574,143.11927 C 475.00194,143.05717 476.16702,135.23049 476.16702,135.23049 L 470.26822,130.81403 z" id="path3689" style="font-size:12px;fill:#ffc500;fill-rule:evenodd;stroke-width:1pt"/>
  <path d="M 477.27929,127.98351 L 483.08241,132.90219 L 478.55663,120.95682 L 477.27929,127.98351 z" id="path3691" style="font-size:12px;fill:#ffc700;fill-opacity:1;fill-rule:evenodd;stroke-width:1pt"/>
  <path d="M 483.89279,125.63292 C 483.95946,125.69137 483.00457,132.8932 483.06746,132.88931 C 483.65189,132.10126 491.37955,122.91391 491.31706,122.91777 C 491.25374,122.9217 484.02236,125.68749 483.89279,125.63292 z" id="path3693" style="font-size:12px;fill:#ffc700;fill-opacity:1;fill-rule:evenodd;stroke-width:1pt"/>
  <path d="M 708.72706,120.65856 L 710.19847,127.83632 L 704.14111,133.22496 L 711.93693,135.59515 L 713.50943,142.84667 L 718.93647,137.7705 L 725.24167,139.82464 L 724.56606,132.8418 L 730.208,128.00022 C 730.208,128.00022 722.77794,125.35573 722.81554,125.30613 C 722.85322,125.25647 721.71134,118.47409 721.62278,118.48657 C 721.53451,118.49932 716.1564,122.99309 716.1564,122.99309 L 708.72706,120.65856 z" id="path3695" style="font-size:12px;fill:#fffa00;fill-opacity:1;fill-rule:evenodd;stroke:#ffc700;stroke-width:0.40014157pt;stroke-opacity:1"/>
  <path d="M 708.79055,120.78208 L 725.22859,139.73845 L 718.79742,137.74611 L 717.02338,130.6565 C 717.02338,130.6565 713.67318,142.73437 713.66037,142.64787 C 713.64757,142.56136 712.06399,135.84218 712.02512,135.5824 L 716.97288,130.61964 C 716.97288,130.61964 704.27998,133.24923 704.31758,133.19961 C 704.35555,133.14967 710.38803,127.89754 710.38803,127.89754 L 708.79055,120.78208 z" id="path3697" style="font-size:12px;fill:#ffc700;fill-opacity:1;fill-rule:evenodd;stroke:none;stroke-width:1pt"/>
  <path d="M 716.1059,122.95613 L 717.30012,130.39534 L 721.69816,118.38732 L 716.1059,122.95613 z" id="path3699" style="font-size:12px;fill:#ffc700;fill-opacity:1;fill-rule:evenodd;stroke-width:1pt"/>
  <path d="M 722.72744,125.3194 C 722.74034,125.40591 717.32528,130.25888 717.37587,130.29578 C 718.33442,130.06868 730.20828,127.99991 730.15805,127.96326 C 730.10719,127.92613 722.79093,125.4428 722.72744,125.3194 z" id="path3701" style="font-size:12px;fill:#ffc700;fill-opacity:1;fill-rule:evenodd;stroke-width:1pt"/>
  <path d="M 511.4081,121.08095 C 520.07596,116.93758 529.80469,113.70503 540.06464,112.29537 C 549.92584,110.88511 559.79521,110.76294 569.92226,110.78462 C 569.92226,110.78462 571.24892,126.2944 571.24892,126.42477 C 563.28881,126.48978 557.35667,126.34195 543.31467,128.15838 C 529.35142,130.09491 523.5995,131.75439 515.10857,135.00834 L 511.4081,121.08095 z" id="path3703" style="font-size:12px;fill:#de1818;fill-opacity:1;fill-rule:evenodd;stroke:#e61717;stroke-width:0.40014367pt;stroke-opacity:1"/>
  <path d="M 518.83049,148.53727 C 518.69758,148.53727 523.21575,164.94442 523.21575,164.94442 C 531.55196,162.84027 540.02067,161.25651 548.4894,160.06354 C 556.95806,158.87058 565.96453,158.19085 574.16781,157.64867 L 572.71552,141.64619 C 564.06983,141.1254 554.21626,141.1254 545.30519,142.29657 C 536.39411,143.46813 527.74158,145.54377 518.83049,148.53727 z" id="path3705" style="font-size:12px;fill:#de1818;fill-opacity:1;fill-rule:evenodd;stroke:#e61717;stroke-width:0.40014186pt;stroke-opacity:1"/>
  <path d="M 479.04034,199.20216 L 720.97509,199.20216 L 720.97509,354.33648 C 714.82569,414.7528 656.75785,459.91373 603.69743,459.56931 C 546.42014,462.06821 483.08114,415.18363 478.51323,353.81928 L 479.04034,199.20216 z" id="path3707" style="font-size:12px;fill:#ffffff;fill-rule:evenodd;stroke:#de1818;stroke-width:1.60056734;stroke-opacity:1"/>
  <path d="M 484.07144,204.63068 L 715.92193,204.63068 L 715.92193,353.29917 C 710.02869,411.19739 654.3814,454.47605 603.53249,454.146 C 548.64276,456.54073 487.94383,411.61025 483.5663,352.8035 L 484.07144,204.63068 z" id="path3709" style="font-size:12px;fill:#de1818;fill-opacity:1;fill-rule:evenodd;stroke:#de1818;stroke-width:1.53385484;stroke-opacity:1"/>
  <rect width="46.10638" height="49.556583" ry="0" x="530.76428" y="205.42212" id="rect3711" style="font-size:12px;fill:#ffffff;fill-rule:evenodd;stroke-width:1pt"/>
  <use transform="matrix(-1, 0, 0, 1, 1199.68, 0.0659548)" id="use2942" x="0" y="0" width="1200" height="600" xlink:href="#path3719"/>
  <use transform="matrix(-1, 0, 0, 1, 1200, 0)" id="use2944" x="0" y="0" width="1200" height="600" xlink:href="#path3717"/>
  <path d="M 531.08453,403.87674 L 531.1805,430.16106 C 546.88707,441.24817 564.82456,447.97951 576.77059,450.47444 L 576.61653,403.89417 L 531.08453,403.87674 z" id="path3717" style="font-size:12px;fill:#ffffff;fill-rule:evenodd;stroke:#ffffff;stroke-width:0.4067615pt"/>
  <path d="M 484.90985,354.36922 C 486.37454,373.55737 495.00197,390.74781 503.61829,402.78505 L 530.50748,403.34525 L 530.51241,354.34831 L 484.90985,354.36922 z" id="path3719" style="font-size:12px;fill:#ffffff;fill-rule:evenodd;stroke:#ffffff;stroke-width:0.41002474pt"/>
  <use transform="translate(-46.1064, 49.5567)" id="use2781" x="0" y="0" width="1200" height="600" xlink:href="#rect3711"/>
  <use transform="translate(46.1064, 49.5566)" id="use2783" x="0" y="0" width="1200" height="600" xlink:href="#rect3711"/>
  <use transform="translate(92.2128)" id="use2779" x="0" y="0" width="1200" height="600" xlink:href="#rect3711"/>
  <use transform="translate(138.319, 49.5566)" id="use2785" x="0" y="0" width="1200" height="600" xlink:href="#rect3711"/>
  <use transform="translate(0, 99.1133)" id="use2936" x="0" y="0" width="1200" height="600" xlink:href="#rect3711"/>
  <use transform="translate(92.2128, 99.1133)" id="use2938" x="0" y="0" width="1200" height="600" xlink:href="#rect3711"/>
  <use transform="translate(46.1066, 148.67)" id="use2940" x="0" y="0" width="1200" height="600" xlink:href="#rect3711"/>
  <path d="M 645.56403,146.8484 C 645.41039,147.03329 645.04774,144.67484 644.9256,144.28355 C 644.76659,143.64936 644.43758,142.53114 644.05348,141.06378 C 645.21133,142.82879 645.8018,145.02377 645.56403,146.8484 z" id="path7132" style="font-size:12px;fill:#cca300;fill-opacity:1;fill-rule:evenodd;stroke:#cca300;stroke-width:0.40014186pt;stroke-opacity:1"/>
</svg>