<?xml version="1.0" encoding="UTF-8" standalone="no"?>
<!-- Created with Inkscape (http://www.inkscape.org/) -->
<svg
   xmlns:svg="http://www.w3.org/2000/svg"
   xmlns="http://www.w3.org/2000/svg"
   version="1.0"
   width="900"
   height="450"
   id="svg1307">
  <defs />
  <rect
     width="900"
     height="225"
     x="0"
     y="0"
     style="fill:#0038a8"
     id="blue" />
  <rect
     width="900"
     height="225"
     x="0"
     y="225"
     style="fill:#ce1126"
     id="red" />
  <path
     d="M 391.6665,225.0004 L 0,450 L 0.00078479994,0 L 391.6665,225.0004 z "
     style="fill:white"
     id="path279" />
  <path
     d="M 26.339115,427.23705 L 25.928553,426.93593 L 25.5186,427.23788 L 25.678113,426.75436 L 25.26426,426.45778 L 25.773406,426.46007 L 25.927583,425.97482 L 26.08274,426.45975 L 26.59188,426.45644 L 26.178626,426.75385 L 26.339115,427.23705 z "
     transform="matrix(39.36969,-4.13785,4.13785,39.36969,-2751.894,-16304.5)"
     style="fill:#fcd116"
     id="path4736" />
  <path
     d="M 105.67947,184.27047 L 91.019309,159.0972 L 82.588666,158.14237 L 102.66217,186.64884 L 105.67947,184.27047 z M 94.300175,195.80424 L 63.476285,172.08731 L 62.372063,158.27969 L 74.836934,157.85844 L 100.31924,189.02351 L 94.300175,195.80424 z M 89.619322,201.22766 L 64.250618,186.90829 L 63.182273,178.49129 L 91.956763,198.17849 L 89.619322,201.22766 z "
     style="fill:#fcd116"
     id="path425" />
  <path
     d="M 141.95903,179.09417 L 149.61066,150.98596 L 144.3759,144.30881 L 138.14734,178.6128 L 141.95903,179.09417 z M 125.75666,179.07803 L 121.02983,140.4741 L 130.09382,129.99968 L 139.13952,138.58606 L 134.81136,178.60953 L 125.75666,179.07803 z M 118.60803,179.5478 L 111.01233,151.42451 L 116.26036,144.75769 L 122.42067,179.07402 L 118.60803,179.5478 z "
     style="fill:#fcd116"
     id="path426" />
  <path
     d="M 171.35397,201.7568 L 196.90317,187.76208 L 198.07875,179.35932 L 169.05562,198.67811 L 171.35397,201.7568 z M 160.12269,190.07885 L 184.64007,159.8877 L 198.47189,159.14614 L 198.56598,171.61776 L 166.74314,196.27369 L 160.12269,190.07885 z M 154.82398,185.25736 L 169.80391,160.27299 L 178.24603,159.42585 L 157.81071,187.67391 L 154.82398,185.25736 z "
     style="fill:#fcd116"
     id="path427" />
  <path
     d="M 175.89921,236.98366 L 204.00335,244.65003 L 210.68328,239.41877 L 176.38252,233.17215 L 175.89921,236.98366 z M 175.92384,220.78122 L 214.53026,216.07469 L 224.99996,225.14424 L 216.40884,234.18541 L 176.3876,229.83622 L 175.92384,220.78122 z M 175.45783,213.63241 L 203.58515,206.05147 L 210.24915,211.30297 L 175.92957,217.44528 L 175.45783,213.63241 z "
     style="fill:#fcd116"
     id="path428" />
  <path
     d="M 154.49924,265.62291 L 169.27042,290.73121 L 177.7052,291.6487 L 157.50601,263.23126 L 154.49924,265.62291 z M 165.82751,254.03894 L 196.75585,277.6196 L 197.92102,291.42215 L 185.45812,291.89846 L 159.83846,260.84614 L 165.82751,254.03894 z M 170.48439,248.59495 L 195.91609,262.80209 L 197.02158,271.21435 L 168.16043,251.65435 L 170.48439,248.59495 z "
     style="fill:#fcd116"
     id="path429" />
  <path
     d="M 118.356,270.98748 L 110.89784,299.14758 L 116.17839,305.78866 L 122.17092,271.44259 L 118.356,270.98748 z M 134.55812,270.89224 L 139.55029,309.46274 L 130.55853,319.99928 L 121.454,311.47533 L 125.50685,271.42297 L 134.55812,270.89224 z M 141.70335,270.37332 L 149.49226,298.44377 L 144.29019,305.14645 L 137.89405,270.87326 L 141.70335,270.37332 z "
     style="fill:#fcd116"
     id="path430" />
  <path
     d="M 89.024161,248.90483 L 63.70315,263.30836 L 62.66276,271.72884 L 91.371713,251.94619 L 89.024161,248.90483 z M 100.44169,260.40073 L 76.412652,290.98192 L 62.594515,291.94571 L 62.299998,279.47726 L 93.72252,254.31306 L 100.44169,260.40073 z M 105.8172,265.13648 L 91.240719,290.35837 L 82.813293,291.34104 L 102.79202,262.76813 L 105.8172,265.13648 z "
     style="fill:#fcd116"
     id="path431" />
  <path
     d="M 84.015404,213.34299 L 55.857612,205.87629 L 49.214992,211.15479 L 83.559147,217.15777 L 84.015404,213.34299 z M 84.105763,229.54512 L 45.533778,234.52545 L 35,225.53058 L 43.526741,216.42865 L 83.577752,220.49371 L 84.105763,229.54512 z M 84.622476,236.69045 L 56.54972,244.47083 L 49.848637,239.26669 L 84.1237,232.88106 L 84.622476,236.69045 z "
     style="fill:#fcd116"
     id="path432" />
  <circle
     cx="82.530502"
     cy="149.8075"
     r="30.915501"
     transform="matrix(1.535213,0,0,1.535213,3.298053,-4.986516)"
     style="fill:#fcd116"
     id="circle1323" />
  <path
     d="M 26.339115,427.23705 L 25.928553,426.93593 L 25.5186,427.23788 L 25.678113,426.75436 L 25.26426,426.45778 L 25.773406,426.46007 L 25.927583,425.97482 L 26.08274,426.45975 L 26.59188,426.45644 L 26.178626,426.75385 L 26.339115,427.23705 z "
     transform="matrix(0,39.58652,-39.58652,0,17206.14,-801.402)"
     style="fill:#fcd116"
     id="path2036" />
  <path
     d="M 26.339115,427.23705 L 25.928553,426.93593 L 25.5186,427.23788 L 25.678113,426.75436 L 25.26426,426.45778 L 25.773406,426.46007 L 25.927583,425.97482 L 26.08274,426.45975 L 26.59188,426.45644 L 26.178626,426.75385 L 26.339115,427.23705 z "
     transform="matrix(39.36969,4.13785,4.13785,-39.36969,-2751.894,16749.57)"
     style="fill:#fcd116"
     id="path4739" />
</svg>
