<?xml version="1.0" encoding="UTF-8"?>
<!DOCTYPE svg>
<svg width="900" height="600" viewBox="-45 -45 243 162" xmlns="http://www.w3.org/2000/svg" xmlns:xlink="http://www.w3.org/1999/xlink">
   <rect x="-45" y="-45" width="100%" height="100%" fill="white"/>
   <path stroke="#0038a8" stroke-width="18" fill="none" d="M 45,-18 h 153 M 45,18 h 153 M -45,54 h 243 M -45,90 h 243"/>
   <g id="sun" fill="#fcd116" stroke="black" stroke-width=".6" stroke-miterlimit="20">
      <g id="4wavyrays">
         <g id="2wavyrays">
            <g id="wavyray" transform="rotate(22.5)">
               <path d="M 0,0 L 6,12 C -2,25 7,27 0,33 C 3,25 -4,28 -3,13"/>
               <path d="M 0,11 C -2,24 4.5,28 0,33" fill="none"/>
            </g>
            <use xlink:href="#wavyray" transform="scale(-1)"/>
         </g>
         <use xlink:href="#2wavyrays" transform="rotate(90)"/>
      </g>
      <use xlink:href="#4wavyrays" transform="rotate(45)"/>
      <g id="4straightrays">
         <g id="2straightrays">
            <path id="straightray" d="M 0,0 H 6 L 0,33 L -6,0 H 0 V 33"/>
            <use xlink:href="#straightray" transform="scale(-1)"/>
         </g>
         <use xlink:href="#2straightrays" transform="rotate(90)"/>
      </g>
      <use xlink:href="#4straightrays" transform="rotate(45)"/>
      <circle r="11"/>
      <g id="face" fill="black" stroke="none" transform="scale(.1)">
         <g id="right">
            <path d="M 81,-44 C 74,-36 70,-50 45,-50 S 16,-35 12,-38 S 33,-59 41,-60 S 72,-53 81,-44"/>
            <path d="M 52,-35 C 59,-29 53,-16 46,-16 S 26,-28 32,-36"/>
            <path d="M 19,-26 C 20,-38 30,-40 46,-40 S 69,-28 75,-25 C 68,-25 62,-35 46,-35 S 30,-35 19,-25"/>
            <path d="M 22,-23 C 26,-29 31,-17 42,-17 S 59,-20 66,-25 S 56,-13 45,-13 S 19,-19 22,-23"/>
            <path d="M 56,-17 C 69,-24 61,-34 56,-36 C 58,-34 66,-24 56,-17"/>
            <path d="M 0,43 C 6,43 8,41 16,41 S 43,52 54,48 C 31,57 40,51 0,51 h -5"/>
            <path d="M 58,57 C 54,50 55,52 47,41 C 55,47 57,50 58,57"/>
            <path d="M 0,67 C 25,67 21,62 54,48 C 30,51 25,59 0,59 h -5"/>
            <path d="M 0,30 C 7,30 9,25 17,25 S 36,28 41,32 C 42,33 38,24 30,23 S 25,9 16,7 C 16,11 19,10 20,16 C 20,21 11,21 9,16 C 11,24 5,24 0,24"/>
         </g>
         <use xlink:href="#right" transform="scale(-1,1)"/>
         <path d="M 0,76 C -5,76 -18,79 0,79 S 5,76 0,76"/>
      </g>
   </g>
</svg>
