<?xml version="1.0" encoding="UTF-8" standalone="no"?>
<svg
   xmlns:dc="http://purl.org/dc/elements/1.1/"
   xmlns:cc="http://web.resource.org/cc/"
   xmlns:rdf="http://www.w3.org/1999/02/22-rdf-syntax-ns#"
   xmlns:svg="http://www.w3.org/2000/svg"
   xmlns="http://www.w3.org/2000/svg"
   xmlns:sodipodi="http://sodipodi.sourceforge.net/DTD/sodipodi-0.dtd"
   xmlns:inkscape="http://www.inkscape.org/namespaces/inkscape"
   version="1.1"
   viewBox="0 0 27 18"
   width="810"
   height="540"
   id="svg2"
   sodipodi:version="0.32"
   inkscape:version="0.45.1"
   sodipodi:docname="Flag_of_Greece.svg"
   inkscape:output_extension="org.inkscape.output.svg.inkscape"
   sodipodi:docbase="E:\My Pictures\Svg Files\אירופה\יוון וביזנטיון">
  <metadata
     id="metadata13">
    <rdf:RDF>
      <cc:Work
         rdf:about="">
        <dc:format>image/svg+xml</dc:format>
        <dc:type
           rdf:resource="http://purl.org/dc/dcmitype/StillImage" />
      </cc:Work>
    </rdf:RDF>
  </metadata>
  <defs
     id="defs11" />
  <sodipodi:namedview
     inkscape:window-height="719"
     inkscape:window-width="1024"
     inkscape:pageshadow="2"
     inkscape:pageopacity="0.0"
     guidetolerance="10.0"
     gridtolerance="10.0"
     objecttolerance="10.0"
     borderopacity="1.0"
     bordercolor="#666666"
     pagecolor="#ffffff"
     id="base"
     inkscape:zoom="0.7"
     inkscape:cx="574.40124"
     inkscape:cy="270"
     inkscape:window-x="-4"
     inkscape:window-y="-4"
     inkscape:current-layer="svg2" />
  <desc
     id="desc4">Flag of Greece</desc>
  <g
     id="g2162">
    <path
       style="fill:#000080"
       id="path6"
       d="M 0,0 L 4,0 L 5,1 L 6,0 L 27,0 L 27,2 L 26,3 L 27,4 L 27,6 L 26,7 L 27,8 L 27,10 L 26,11 L 27,12 L 27,14 L 26,15 L 27,16 L 27,18 L 0,18 L 0,16 L 1,15 L 0,14 L 0,12 L 1,11 L 0,10 L 0,6 L 1,5 L 0,4 L 0,0 z " />
    <path
       id="path8"
       d="M 4,0 L 6,0 L 6,4 L 10,4 L 10,6 L 6,6 L 6,10 L 27,10 L 27,12 L 0,12 L 0,10 L 4,10 L 4,6 L 0,6 L 0,4 L 4,4 L 4,0 z M 10,2 L 27,2 L 27,4 L 10,4 L 10,2 z M 10,6 L 27,6 L 27,8 L 10,8 L 10,6 z M 0,10 L 17,10 L 17,12 L 0,12 L 0,10 z M 0,14 L 27,14 L 27,16 L 0,16 L 0,14 z "
       style="fill:#ffffff" />
  </g>
</svg>
