<?xml version="1.0" encoding="UTF-8" standalone="no"?>
<!-- Created with Inkscape (http://www.inkscape.org/) -->
<svg
   xmlns:svg="http://www.w3.org/2000/svg"
   xmlns="http://www.w3.org/2000/svg"
   version="1.0"
   width="1350"
   height="900"
   id="svg2"
   xml:space="preserve"><defs
     id="defs10" /><rect
     width="1350"
     height="900"
     x="0"
     y="0"
     style="fill:#ffffff"
     id="rect4117" /><path
     d="M 809.99952,449.99983 C 809.99952,524.55892 749.55908,585 675,585 C 600.44091,585 540.00047,524.55892 540.00047,449.99983 C 540.00047,375.44234 600.44091,314.99999 675,314.99999 C 749.55908,314.99999 809.99952,375.44234 809.99952,449.99983 L 809.99952,449.99983 z "
     style="fill:#000066"
     id="path2128" /><path
     d="M 675,449.99983 L 670.88487,497.38948 L 674.48167,568.91878 C 671.97339,568.90923 669.46702,568.82077 666.96353,568.64832 C 667.50476,564.5316 664.60798,560.75535 660.48935,560.21443 C 656.37263,559.67287 652.59702,562.56966 652.05356,566.68637 C 649.59269,566.20209 647.14773,565.64144 644.72155,565.00252 L 666.70897,496.84156 L 675,449.99983 z M 675,449.99983 L 658.75968,494.71098 L 643.71957,564.73524 C 641.29944,564.07468 638.90125,563.33585 636.52821,562.52765 C 638.11787,558.68903 636.29688,554.29104 632.45922,552.70074 C 628.62219,551.1117 624.22419,552.93683 622.63453,556.76909 C 620.38367,555.66561 618.16685,554.49086 615.98886,553.24611 L 654.86792,493.0984 L 675,449.99983 z M 675,449.99983 L 647.74179,488.98041 L 615.09061,552.72619 C 612.9247,551.46489 610.79793,550.13232 608.71508,548.73293 C 611.24276,545.44223 610.62229,540.72096 607.32778,538.192 C 604.03389,535.66558 599.3123,536.28733 596.78493,539.57866 C 594.89522,537.93236 593.05991,536.22369 591.2771,534.45584 L 644.40018,486.42091 L 675,449.99983 z M 675,449.99983 L 638.57988,480.59997 L 590.54463,533.72082 C 588.77773,531.94151 587.0697,530.10302 585.41862,528.21426 C 588.71473,525.6834 589.3352,520.96657 586.80751,517.67142 C 584.27951,514.37754 579.55983,513.75516 576.26595,516.28348 C 574.86656,514.2019 573.53589,512.07577 572.27173,509.90954 L 636.01752,477.25964 L 675,449.99983 z M 675,449.99983 L 631.90207,470.12968 L 571.7534,509.00907 C 570.50929,506.8333 569.33327,504.61807 568.22915,502.36467 C 572.06459,500.77564 573.88749,496.37828 572.29846,492.53838 C 570.70911,488.70359 566.30921,486.88164 562.47409,488.47131 C 561.66207,486.09826 560.92578,483.70103 560.2665,481.28153 L 630.29013,466.24206 L 675,449.99983 z M 675,449.99983 L 628.15986,458.2899 L 559.99731,480.2767 C 559.35903,477.8502 558.79838,475.40651 558.31346,472.94628 C 562.43018,472.40091 565.32855,468.62529 564.787,464.50857 C 564.24449,460.39186 560.46791,457.49571 556.35183,458.03663 C 556.18097,455.53312 556.09155,453.02707 556.08105,450.51848 L 627.60939,454.1121 L 675,449.99983 z M 675,449.99983 L 627.60939,445.88439 L 556.08105,449.48119 C 556.09155,446.9726 556.18097,444.46622 556.35183,441.96273 C 560.46791,442.50396 564.24449,439.60782 564.787,435.48887 C 565.32855,431.37215 562.43018,427.59686 558.31346,427.05339 C 558.79838,424.59253 559.35903,422.14693 559.99731,419.72139 L 628.15986,441.70817 L 675,449.99983 z M 675,449.99983 L 630.29013,433.75888 L 560.2665,418.71909 C 560.92578,416.29896 561.66207,413.90109 562.47409,411.52805 C 566.30921,413.11739 570.70911,411.2945 572.29846,407.45874 C 573.88749,403.62171 572.06459,399.22371 568.22915,397.63437 C 569.33327,395.38287 570.50929,393.16637 571.7534,390.98837 L 631.90207,429.86712 L 675,449.99983 z M 675,449.99983 L 636.01752,422.74131 L 572.27173,390.08981 C 573.53589,387.92295 574.86656,385.79777 576.26595,383.7146 C 579.55983,386.24228 584.27951,385.62213 586.80751,382.32762 C 589.3352,379.03373 588.71473,374.31182 585.41862,371.78414 C 587.0697,369.89474 588.77773,368.05752 590.54463,366.27694 L 638.57988,419.3997 L 675,449.99983 z M 675,449.99983 L 644.40018,413.5794 L 591.2771,365.54415 C 593.05991,363.77725 594.89522,362.0689 596.78493,360.41846 C 599.3123,363.71457 604.03389,364.33472 607.32778,361.80735 C 610.62229,359.27935 611.24276,354.55935 608.71508,351.26547 C 610.79793,349.86608 612.9247,348.53573 615.09061,347.27125 L 647.74179,411.01513 L 675,449.99983 z M 675,449.99983 L 654.86792,406.90191 L 615.98886,346.75292 C 618.16685,345.50849 620.38367,344.33247 622.63453,343.22899 C 624.22419,347.06411 628.62219,348.88669 632.45922,347.2983 C 636.29688,345.70863 638.11787,341.30905 636.52821,337.47361 C 638.90125,336.66159 641.29944,335.92499 643.71957,335.2657 L 658.75968,405.28997 L 675,449.99983 z M 675,449.99983 L 666.70897,403.1597 L 644.72155,334.99715 C 647.14773,334.35887 649.59269,333.79822 652.05356,333.3133 C 652.59702,337.4297 656.37263,340.32775 660.48935,339.78652 C 664.60798,339.24401 667.50476,335.46775 666.96353,331.35103 C 669.46702,331.18017 671.97339,331.09107 674.48167,331.08057 L 670.88487,402.60891 L 675,449.99983 z M 675,449.99983 L 679.1129,402.60891 L 675.51864,331.08057 C 678.02724,331.09107 680.53392,331.18017 683.03679,331.35103 C 682.49587,335.46775 685.39202,339.24401 689.50873,339.78652 C 693.62545,340.32775 697.40234,337.4297 697.94644,333.3133 C 700.40731,333.79822 702.85099,334.35887 705.2775,334.99715 L 683.29007,403.1597 L 675,449.99983 z M 675,449.99983 L 691.24286,405.28997 L 706.28169,335.2657 C 708.70119,335.92499 711.09906,336.66159 713.47211,337.47361 C 711.8818,341.30905 713.70375,345.70863 717.53855,347.2983 C 721.37844,348.88669 725.77707,347.06411 727.36483,343.22899 C 729.61887,344.33247 731.8341,345.50849 734.00923,346.75292 L 695.13111,406.90191 L 675,449.99983 z M 675,449.99983 L 702.2598,411.01513 L 734.9097,347.27125 C 737.07593,348.53573 739.20206,349.86608 741.28364,351.26547 C 738.75532,354.55935 739.3777,359.27935 742.67286,361.80735 C 745.96674,364.33472 750.68801,363.71457 753.21506,360.41846 C 755.10318,362.0689 756.94167,363.77725 758.72098,365.54415 L 705.60013,413.5794 L 675,449.99983 z M 675,449.99983 L 711.42171,419.3997 L 759.456,366.27694 C 761.22449,368.05752 762.93252,369.89474 764.57883,371.78414 C 761.28749,374.31182 760.66575,379.03373 763.1928,382.32762 C 765.72112,385.62213 770.4424,386.24228 773.73309,383.7146 C 775.13248,385.79777 776.46505,387.92295 777.72635,390.08981 L 713.98121,422.74131 L 675,449.99983 z M 675,449.99983 L 718.09856,429.86712 L 778.24627,390.98838 C 779.49102,393.16637 780.66577,395.38287 781.76989,397.63437 C 777.93763,399.22371 776.1125,403.62171 777.70217,407.45874 C 779.2912,411.2945 783.68792,413.11739 787.52782,411.52805 C 788.33665,413.90109 789.07485,416.29896 789.73604,418.71909 L 719.71114,433.75888 L 675,449.99983 z M 675,449.99983 L 721.84299,441.70817 L 790.00268,419.72139 C 790.64224,422.14693 791.20225,424.59253 791.68653,427.05339 C 787.56982,427.59686 784.67303,431.37215 785.21459,435.48887 C 785.75615,439.60782 789.5324,442.50396 793.64912,441.96273 C 793.82094,444.46622 793.9094,446.9726 793.91894,449.48119 L 722.38964,445.88439 L 675,449.99983 z M 675,449.99983 L 722.38964,454.1121 L 793.91894,450.51848 C 793.9094,453.02707 793.82094,455.53312 793.64912,458.03663 C 789.5324,457.49571 785.75615,460.39186 785.21459,464.50857 C 784.67303,468.62529 787.56982,472.40091 791.68653,472.94628 C 791.20225,475.40651 790.64224,477.8502 790.00268,480.2767 L 721.84299,458.2899 L 675,449.99983 z M 675,449.99983 L 719.71114,466.24206 L 789.73604,481.28153 C 789.07485,483.70103 788.33665,486.09826 787.52782,488.47131 C 783.68792,486.88164 779.2912,488.70359 777.70217,492.53838 C 776.1125,496.37828 777.93763,500.77564 781.76989,502.36467 C 780.66577,504.61807 779.49102,506.8333 778.24627,509.00907 L 718.09856,470.12968 L 675,449.99983 z M 675,449.99983 L 713.98121,477.25964 L 777.72635,509.90954 C 776.46505,512.07577 775.13248,514.2019 773.73309,516.28348 C 770.4424,513.75516 765.72112,514.37754 763.1928,517.67142 C 760.66575,520.96657 761.28749,525.6834 764.57883,528.21426 C 762.93252,530.10302 761.22449,531.94151 759.456,533.72082 L 711.42171,480.59997 L 675,449.99983 z M 675,449.99983 L 705.60013,486.42091 L 758.72098,534.45584 C 756.94167,536.22369 755.10318,537.93236 753.21506,539.57866 C 750.68801,536.28733 745.96674,535.66558 742.67286,538.192 C 739.3777,540.72096 738.75532,545.44223 741.28364,548.73293 C 739.20206,550.13232 737.07593,551.46489 734.9097,552.72619 L 702.2598,488.98041 L 675,449.99983 z M 675,449.99983 L 695.13111,493.0984 L 734.00923,553.24611 C 731.8341,554.49086 729.61887,555.66561 727.36483,556.76909 C 725.77707,552.93683 721.37844,551.1117 717.53855,552.70074 C 713.70375,554.29104 711.8818,558.68903 713.47211,562.52765 C 711.09906,563.33585 708.70119,564.07468 706.28169,564.73524 L 691.24286,494.71098 L 675,449.99983 z M 675,449.99983 L 683.29007,496.84156 L 705.2775,565.00252 C 702.85099,565.64144 700.40731,566.20209 697.94644,566.68637 C 697.40234,562.56966 693.62545,559.67287 689.50873,560.21443 C 685.39202,560.75535 682.49587,564.5316 683.03679,568.64832 C 680.53392,568.82077 678.02724,568.90923 675.51864,568.91878 L 679.1129,497.38948 L 675,449.99983 z "
     style="fill:#ffffff"
     id="path6" /><path
     d="M 699.27202,449.99983 C 699.27202,463.40127 688.40144,474.27185 675,474.27185 C 661.59665,474.27185 650.73021,463.40127 650.73021,449.99983 C 650.73021,436.59648 661.59665,425.72973 675,425.72973 C 688.40144,425.72973 699.27202,436.59648 699.27202,449.99983 z "
     style="fill:#000066"
     id="path2132" /><rect
     width="1350"
     height="300"
     x="0"
     y="0"
     style="fill:#ff9933"
     id="rect2172" /><rect
     width="1350"
     height="300"
     x="0"
     y="600"
     style="fill:#138808"
     id="rect3146" /></svg>